<?xml version="1.0" encoding="UTF-8" standalone="no"?>
<!DOCTYPE svg PUBLIC "-//W3C//DTD SVG 1.1//EN"
 "http://www.w3.org/Graphics/SVG/1.1/DTD/svg11.dtd">
<!-- Generated by graphviz version 13.1.0 (20250701.0955)
 -->
<!-- Title: G Pages: 1 -->
<svg width="1005pt" height="648pt"
 viewBox="0.00 0.00 1005.00 648.00" xmlns="http://www.w3.org/2000/svg" xmlns:xlink="http://www.w3.org/1999/xlink">
<g id="graph0" class="graph" transform="scale(1 1) rotate(0) translate(14.4 633.65)">
<title>G</title>
<polygon fill="white" stroke="none" points="-14.4,14.4 -14.4,-633.65 990.65,-633.65 990.65,14.4 -14.4,14.4"/>
<text xml:space="preserve" text-anchor="middle" x="488.12" y="-605.75" font-family="Times New Roman,serif" font-size="10.00">Spatial&#45;Temporal DiT (ST&#45;DiT) Architecture — OpenSora&#45;style</text>
<g id="clust1" class="cluster">
<title>cluster_text</title>
<polygon fill="none" stroke="#7f8c8d" stroke-dasharray="5,2" points="346.88,-521 346.88,-592 621.88,-592 621.88,-521 346.88,-521"/>
<text xml:space="preserve" text-anchor="middle" x="484.38" y="-578.5" font-family="Times New Roman,serif" font-size="10.00" fill="#7f8c8d">Text Conditioning</text>
</g>
<g id="clust2" class="cluster">
<title>cluster_data_in</title>
<polygon fill="none" stroke="#7f8c8d" stroke-dasharray="5,2" points="45.62,-87 45.62,-158 451.25,-158 451.25,-87 45.62,-87"/>
<text xml:space="preserve" text-anchor="middle" x="248.44" y="-144.5" font-family="Times New Roman,serif" font-size="10.00">Latentization</text>
</g>
<g id="clust3" class="cluster">
<title>cluster_stdit</title>
<path fill="none" stroke="#34495e" d="M522,-87C522,-87 818.75,-87 818.75,-87 824.75,-87 830.75,-93 830.75,-99 830.75,-99 830.75,-501 830.75,-501 830.75,-507 824.75,-513 818.75,-513 818.75,-513 522,-513 522,-513 516,-513 510,-507 510,-501 510,-501 510,-99 510,-99 510,-93 516,-87 522,-87"/>
<text xml:space="preserve" text-anchor="middle" x="670.38" y="-499.5" font-family="Times New Roman,serif" font-size="10.00" fill="#34495e">ST&#45;DiT Core (2+1D alternation)</text>
</g>
<g id="clust5" class="cluster">
<title>cluster_data_out</title>
<polygon fill="none" stroke="#7f8c8d" stroke-dasharray="5,2" points="735,-8 735,-79 968.25,-79 968.25,-8 735,-8"/>
<text xml:space="preserve" text-anchor="middle" x="851.62" y="-65.5" font-family="Times New Roman,serif" font-size="10.00">Decoding</text>
</g>
<!-- text_enc -->
<g id="node1" class="node">
<title>text_enc</title>
<path fill="none" stroke="black" d="M412.88,-565C412.88,-565 366.88,-565 366.88,-565 360.88,-565 354.88,-559 354.88,-553 354.88,-553 354.88,-541 354.88,-541 354.88,-535 360.88,-529 366.88,-529 366.88,-529 412.88,-529 412.88,-529 418.88,-529 424.88,-535 424.88,-541 424.88,-541 424.88,-553 424.88,-553 424.88,-559 418.88,-565 412.88,-565"/>
<text xml:space="preserve" text-anchor="middle" x="389.88" y="-548.75" font-family="Times New Roman,serif" font-size="10.00">Text Encoder</text>
<text xml:space="preserve" text-anchor="middle" x="389.88" y="-537.5" font-family="Times New Roman,serif" font-size="10.00">(e.g., T5)</text>
</g>
<!-- txt_tokens -->
<g id="node2" class="node">
<title>txt_tokens</title>
<path fill="#f6f8fa" stroke="black" d="M601.88,-565C601.88,-565 549.12,-565 549.12,-565 543.12,-565 537.12,-559 537.12,-553 537.12,-553 537.12,-541 537.12,-541 537.12,-535 543.12,-529 549.12,-529 549.12,-529 601.88,-529 601.88,-529 607.88,-529 613.88,-535 613.88,-541 613.88,-541 613.88,-553 613.88,-553 613.88,-559 607.88,-565 601.88,-565"/>
<text xml:space="preserve" text-anchor="middle" x="575.5" y="-548.75" font-family="Times New Roman,serif" font-size="10.00">Prompt tokens</text>
<text xml:space="preserve" text-anchor="middle" x="575.5" y="-537.5" font-family="Times New Roman,serif" font-size="10.00">+ position enc.</text>
</g>
<!-- text_enc&#45;&gt;txt_tokens -->
<g id="edge1" class="edge">
<title>text_enc&#45;&gt;txt_tokens</title>
<path fill="none" stroke="black" d="M424.98,-547C454.12,-547 496.29,-547 528.42,-547"/>
<polygon fill="black" stroke="black" points="528.26,-549.45 535.26,-547 528.26,-544.55 528.26,-549.45"/>
<text xml:space="preserve" text-anchor="middle" x="480.62" y="-548.95" font-family="Times New Roman,serif" font-size="9.00">embeddings</text>
</g>
<!-- CA1 -->
<g id="node12" class="node">
<title>CA1</title>
<path fill="#eef7ff" stroke="black" d="M810.75,-339C810.75,-339 774.5,-339 774.5,-339 768.5,-339 762.5,-333 762.5,-327 762.5,-327 762.5,-315 762.5,-315 762.5,-309 768.5,-303 774.5,-303 774.5,-303 810.75,-303 810.75,-303 816.75,-303 822.75,-309 822.75,-315 822.75,-315 822.75,-327 822.75,-327 822.75,-333 816.75,-339 810.75,-339"/>
<text xml:space="preserve" text-anchor="middle" x="792.62" y="-322.75" font-family="Times New Roman,serif" font-size="10.00">Cross&#45;Attn</text>
<text xml:space="preserve" text-anchor="middle" x="792.62" y="-311.5" font-family="Times New Roman,serif" font-size="10.00">(text)</text>
</g>
<!-- txt_tokens&#45;&gt;CA1 -->
<g id="edge22" class="edge">
<title>txt_tokens&#45;&gt;CA1</title>
<path fill="none" stroke="#2980b9" stroke-dasharray="5,2" d="M614.03,-531.43C625.24,-526.86 637.59,-521.9 649,-517.5 683.43,-504.21 703.98,-517.85 727,-489 735.8,-477.97 730.69,-439.44 735,-426 744.24,-397.2 761.37,-367.08 774.38,-346.52"/>
<polygon fill="#2980b9" stroke="#2980b9" points="776.41,-347.89 778.14,-340.68 772.29,-345.24 776.41,-347.89"/>
<text xml:space="preserve" text-anchor="middle" x="688" y="-519.45" font-family="Times New Roman,serif" font-size="9.00">cross&#45;attn keys/values</text>
</g>
<!-- CA2 -->
<g id="node13" class="node">
<title>CA2</title>
<path fill="#eef7ff" stroke="black" d="M810.75,-474C810.75,-474 774.5,-474 774.5,-474 768.5,-474 762.5,-468 762.5,-462 762.5,-462 762.5,-450 762.5,-450 762.5,-444 768.5,-438 774.5,-438 774.5,-438 810.75,-438 810.75,-438 816.75,-438 822.75,-444 822.75,-450 822.75,-450 822.75,-462 822.75,-462 822.75,-468 816.75,-474 810.75,-474"/>
<text xml:space="preserve" text-anchor="middle" x="792.62" y="-457.75" font-family="Times New Roman,serif" font-size="10.00">Cross&#45;Attn</text>
<text xml:space="preserve" text-anchor="middle" x="792.62" y="-446.5" font-family="Times New Roman,serif" font-size="10.00">(text)</text>
</g>
<!-- txt_tokens&#45;&gt;CA2 -->
<g id="edge23" class="edge">
<title>txt_tokens&#45;&gt;CA2</title>
<path fill="none" stroke="#2980b9" stroke-dasharray="5,2" d="M614.25,-550.08C646.09,-551.02 691.95,-548.37 727,-530 748.02,-518.99 765.28,-498.09 776.66,-481.3"/>
<polygon fill="#2980b9" stroke="#2980b9" points="778.56,-482.87 780.34,-475.67 774.46,-480.19 778.56,-482.87"/>
</g>
<!-- CA3 -->
<g id="node14" class="node">
<title>CA3</title>
<path fill="#eef7ff" stroke="black" d="M810.75,-235C810.75,-235 774.5,-235 774.5,-235 768.5,-235 762.5,-229 762.5,-223 762.5,-223 762.5,-211 762.5,-211 762.5,-205 768.5,-199 774.5,-199 774.5,-199 810.75,-199 810.75,-199 816.75,-199 822.75,-205 822.75,-211 822.75,-211 822.75,-223 822.75,-223 822.75,-229 816.75,-235 810.75,-235"/>
<text xml:space="preserve" text-anchor="middle" x="792.62" y="-218.75" font-family="Times New Roman,serif" font-size="10.00">Cross&#45;Attn</text>
<text xml:space="preserve" text-anchor="middle" x="792.62" y="-207.5" font-family="Times New Roman,serif" font-size="10.00">(text)</text>
</g>
<!-- txt_tokens&#45;&gt;CA3 -->
<g id="edge24" class="edge">
<title>txt_tokens&#45;&gt;CA3</title>
<path fill="none" stroke="#2980b9" stroke-dasharray="5,2" d="M614.23,-532.88C621.06,-529.12 627.69,-524.52 633,-519 652.23,-498.99 720.8,-314.85 735,-291 745.31,-273.68 759,-255.69 770.34,-241.78"/>
<polygon fill="#2980b9" stroke="#2980b9" points="772.15,-243.43 774.72,-236.47 768.38,-240.31 772.15,-243.43"/>
</g>
<!-- video_in -->
<g id="node3" class="node">
<title>video_in</title>
<polygon fill="none" stroke="black" points="118.38,-131 115.38,-135 94.38,-135 91.38,-131 53.62,-131 53.62,-95 118.38,-95 118.38,-131"/>
<text xml:space="preserve" text-anchor="middle" x="86" y="-114.75" font-family="Times New Roman,serif" font-size="10.00">Input Video</text>
<text xml:space="preserve" text-anchor="middle" x="86" y="-103.5" font-family="Times New Roman,serif" font-size="10.00">(FxHxW)</text>
</g>
<!-- vae_enc -->
<g id="node4" class="node">
<title>vae_enc</title>
<path fill="none" stroke="black" d="M291.5,-131C291.5,-131 217,-131 217,-131 211,-131 205,-125 205,-119 205,-119 205,-107 205,-107 205,-101 211,-95 217,-95 217,-95 291.5,-95 291.5,-95 297.5,-95 303.5,-101 303.5,-107 303.5,-107 303.5,-119 303.5,-119 303.5,-125 297.5,-131 291.5,-131"/>
<text xml:space="preserve" text-anchor="middle" x="254.25" y="-114.75" font-family="Times New Roman,serif" font-size="10.00">Video VAE Encoder</text>
<text xml:space="preserve" text-anchor="middle" x="254.25" y="-103.5" font-family="Times New Roman,serif" font-size="10.00">(3D, compress)</text>
</g>
<!-- video_in&#45;&gt;vae_enc -->
<g id="edge2" class="edge">
<title>video_in&#45;&gt;vae_enc</title>
<path fill="none" stroke="black" d="M118.66,-113C140.59,-113 170.41,-113 196.4,-113"/>
<polygon fill="black" stroke="black" points="196.18,-115.45 203.18,-113 196.18,-110.55 196.18,-115.45"/>
</g>
<!-- patchify -->
<g id="node5" class="node">
<title>patchify</title>
<path fill="none" stroke="black" d="M431.25,-131C431.25,-131 348.5,-131 348.5,-131 342.5,-131 336.5,-125 336.5,-119 336.5,-119 336.5,-107 336.5,-107 336.5,-101 342.5,-95 348.5,-95 348.5,-95 431.25,-95 431.25,-95 437.25,-95 443.25,-101 443.25,-107 443.25,-107 443.25,-119 443.25,-119 443.25,-125 437.25,-131 431.25,-131"/>
<text xml:space="preserve" text-anchor="middle" x="389.88" y="-114.75" font-family="Times New Roman,serif" font-size="10.00">Patchify +</text>
<text xml:space="preserve" text-anchor="middle" x="389.88" y="-103.5" font-family="Times New Roman,serif" font-size="10.00">Positional Embedding</text>
</g>
<!-- vae_enc&#45;&gt;patchify -->
<g id="edge3" class="edge">
<title>vae_enc&#45;&gt;patchify</title>
<path fill="none" stroke="black" d="M303.87,-113C311.62,-113 319.73,-113 327.73,-113"/>
<polygon fill="black" stroke="black" points="327.49,-115.45 334.49,-113 327.49,-110.55 327.49,-115.45"/>
</g>
<!-- S1 -->
<g id="node6" class="node">
<title>S1</title>
<path fill="#ffffff" stroke="black" d="M616.12,-131C616.12,-131 534.88,-131 534.88,-131 528.88,-131 522.88,-125 522.88,-119 522.88,-119 522.88,-107 522.88,-107 522.88,-101 528.88,-95 534.88,-95 534.88,-95 616.12,-95 616.12,-95 622.12,-95 628.12,-101 628.12,-107 628.12,-107 628.12,-119 628.12,-119 628.12,-125 622.12,-131 616.12,-131"/>
<text xml:space="preserve" text-anchor="middle" x="575.5" y="-114.75" font-family="Times New Roman,serif" font-size="10.00">S&#45;DiT&#45;B</text>
<text xml:space="preserve" text-anchor="middle" x="575.5" y="-103.5" font-family="Times New Roman,serif" font-size="10.00">Spatial Self&#45;Attn (2D)</text>
</g>
<!-- patchify&#45;&gt;S1 -->
<g id="edge20" class="edge">
<title>patchify&#45;&gt;S1</title>
<path fill="none" stroke="black" d="M443.49,-113C461.63,-113 482.29,-113 501.75,-113"/>
<polygon fill="black" stroke="black" points="501.49,-115.45 508.49,-113 501.49,-110.55 501.49,-115.45"/>
</g>
<!-- T1 -->
<g id="node7" class="node">
<title>T1</title>
<path fill="#ffffff" stroke="black" d="M621,-339C621,-339 530,-339 530,-339 524,-339 518,-333 518,-327 518,-327 518,-315 518,-315 518,-309 524,-303 530,-303 530,-303 621,-303 621,-303 627,-303 633,-309 633,-315 633,-315 633,-327 633,-327 633,-333 627,-339 621,-339"/>
<text xml:space="preserve" text-anchor="middle" x="575.5" y="-322.75" font-family="Times New Roman,serif" font-size="10.00">T&#45;DiT&#45;B</text>
<text xml:space="preserve" text-anchor="middle" x="575.5" y="-311.5" font-family="Times New Roman,serif" font-size="10.00">Temporal Self&#45;Attn (1D)</text>
</g>
<!-- S1&#45;&gt;T1 -->
<!-- S1&#45;&gt;T1 -->
<g id="edge9" class="edge">
<title>S1&#45;&gt;T1</title>
<path fill="none" stroke="#2c3e50" d="M522.43,-124.29C502.76,-131.32 482.45,-142.62 470.83,-160.67 449.51,-193.81 452.45,-214.47 470.83,-249.33 482.13,-270.76 503.04,-287.01 523.22,-298.57"/>
<polygon fill="#2c3e50" stroke="#2c3e50" points="521.96,-300.67 529.28,-301.89 524.32,-296.37 521.96,-300.67"/>
</g>
<!-- S2 -->
<g id="node8" class="node">
<title>S2</title>
<path fill="#ffffff" stroke="black" d="M616.12,-253C616.12,-253 534.88,-253 534.88,-253 528.88,-253 522.88,-247 522.88,-241 522.88,-241 522.88,-229 522.88,-229 522.88,-223 528.88,-217 534.88,-217 534.88,-217 616.12,-217 616.12,-217 622.12,-217 628.12,-223 628.12,-229 628.12,-229 628.12,-241 628.12,-241 628.12,-247 622.12,-253 616.12,-253"/>
<text xml:space="preserve" text-anchor="middle" x="575.5" y="-236.75" font-family="Times New Roman,serif" font-size="10.00">S&#45;DiT&#45;B</text>
<text xml:space="preserve" text-anchor="middle" x="575.5" y="-225.5" font-family="Times New Roman,serif" font-size="10.00">Spatial Self&#45;Attn (2D)</text>
</g>
<!-- T1&#45;&gt;S2 -->
<!-- T1&#45;&gt;S2 -->
<g id="edge10" class="edge">
<title>T1&#45;&gt;S2</title>
<path fill="none" stroke="#2c3e50" d="M548.88,-302.54C533.89,-288.23 532.02,-273.92 543.25,-259.61"/>
<polygon fill="#2c3e50" stroke="#2c3e50" points="544.92,-261.41 547.85,-254.59 541.31,-258.1 544.92,-261.41"/>
</g>
<!-- T1&#45;&gt;CA1 -->
<g id="edge14" class="edge">
<title>T1&#45;&gt;CA1</title>
<path fill="none" stroke="#95a5a6" stroke-dasharray="5,2" d="M633.3,-321C671.4,-321 720.53,-321 753.88,-321"/>
<polygon fill="#95a5a6" stroke="#95a5a6" points="753.49,-323.45 760.49,-321 753.49,-318.55 753.49,-323.45"/>
</g>
<!-- T2 -->
<g id="node9" class="node">
<title>T2</title>
<path fill="#ffffff" stroke="black" d="M621,-400C621,-400 530,-400 530,-400 524,-400 518,-394 518,-388 518,-388 518,-376 518,-376 518,-370 524,-364 530,-364 530,-364 621,-364 621,-364 627,-364 633,-370 633,-376 633,-376 633,-388 633,-388 633,-394 627,-400 621,-400"/>
<text xml:space="preserve" text-anchor="middle" x="575.5" y="-383.75" font-family="Times New Roman,serif" font-size="10.00">T&#45;DiT&#45;B</text>
<text xml:space="preserve" text-anchor="middle" x="575.5" y="-372.5" font-family="Times New Roman,serif" font-size="10.00">Temporal Self&#45;Attn (1D)</text>
</g>
<!-- S2&#45;&gt;T2 -->
<!-- S2&#45;&gt;T2 -->
<g id="edge11" class="edge">
<title>S2&#45;&gt;T2</title>
<path fill="none" stroke="#2c3e50" d="M531.35,-253.36C493.84,-271.76 449.25,-302.08 470.83,-335.33 480,-349.46 494.55,-359.35 509.92,-366.25"/>
<polygon fill="#2c3e50" stroke="#2c3e50" points="508.71,-368.4 516.11,-368.83 510.59,-363.88 508.71,-368.4"/>
</g>
<!-- S3 -->
<g id="node10" class="node">
<title>S3</title>
<path fill="#ffffff" stroke="black" d="M616.12,-486C616.12,-486 534.88,-486 534.88,-486 528.88,-486 522.88,-480 522.88,-474 522.88,-474 522.88,-462 522.88,-462 522.88,-456 528.88,-450 534.88,-450 534.88,-450 616.12,-450 616.12,-450 622.12,-450 628.12,-456 628.12,-462 628.12,-462 628.12,-474 628.12,-474 628.12,-480 622.12,-486 616.12,-486"/>
<text xml:space="preserve" text-anchor="middle" x="575.5" y="-469.75" font-family="Times New Roman,serif" font-size="10.00">S&#45;DiT&#45;B</text>
<text xml:space="preserve" text-anchor="middle" x="575.5" y="-458.5" font-family="Times New Roman,serif" font-size="10.00">Spatial Self&#45;Attn (2D)</text>
</g>
<!-- T2&#45;&gt;S3 -->
<!-- T2&#45;&gt;S3 -->
<g id="edge12" class="edge">
<title>T2&#45;&gt;S3</title>
<path fill="none" stroke="#2c3e50" d="M546.4,-400.48C529.89,-414.91 527.96,-429.35 540.61,-443.79"/>
<polygon fill="#2c3e50" stroke="#2c3e50" points="538.64,-445.29 545.34,-448.47 542.09,-441.81 538.64,-445.29"/>
</g>
<!-- T2&#45;&gt;CA2 -->
<g id="edge16" class="edge">
<title>T2&#45;&gt;CA2</title>
<path fill="none" stroke="#95a5a6" stroke-dasharray="5,2" d="M630.23,-400.48C668.83,-413.76 719.88,-431.32 754.14,-443.11"/>
<polygon fill="#95a5a6" stroke="#95a5a6" points="753.2,-445.37 760.61,-445.33 754.79,-440.74 753.2,-445.37"/>
</g>
<!-- T3 -->
<g id="node11" class="node">
<title>T3</title>
<path fill="#ffffff" stroke="black" d="M621,-192C621,-192 530,-192 530,-192 524,-192 518,-186 518,-180 518,-180 518,-168 518,-168 518,-162 524,-156 530,-156 530,-156 621,-156 621,-156 627,-156 633,-162 633,-168 633,-168 633,-180 633,-180 633,-186 627,-192 621,-192"/>
<text xml:space="preserve" text-anchor="middle" x="575.5" y="-175.75" font-family="Times New Roman,serif" font-size="10.00">T&#45;DiT&#45;B</text>
<text xml:space="preserve" text-anchor="middle" x="575.5" y="-164.5" font-family="Times New Roman,serif" font-size="10.00">Temporal Self&#45;Attn (1D)</text>
</g>
<!-- S3&#45;&gt;T3 -->
<!-- S3&#45;&gt;T3 -->
<g id="edge13" class="edge">
<title>S3&#45;&gt;T3</title>
<path fill="none" stroke="#2c3e50" d="M530.6,-449.61C508.32,-437.92 483.52,-420.39 470.83,-396.33 452.73,-362 449.83,-254.31 470.83,-221.67 480.02,-207.38 494.67,-197.33 510.12,-190.27"/>
<polygon fill="#2c3e50" stroke="#2c3e50" points="510.87,-192.61 516.36,-187.63 508.96,-188.1 510.87,-192.61"/>
</g>
<!-- T3&#45;&gt;CA3 -->
<g id="edge18" class="edge">
<title>T3&#45;&gt;CA3</title>
<path fill="none" stroke="#95a5a6" stroke-dasharray="5,2" d="M633.3,-185.35C671.4,-192.97 720.53,-202.79 753.88,-209.46"/>
<polygon fill="#95a5a6" stroke="#95a5a6" points="753.18,-211.81 760.52,-210.78 754.14,-207.01 753.18,-211.81"/>
</g>
<!-- vae_dec -->
<g id="node15" class="node">
<title>vae_dec</title>
<path fill="none" stroke="black" d="M830.25,-52C830.25,-52 755,-52 755,-52 749,-52 743,-46 743,-40 743,-40 743,-28 743,-28 743,-22 749,-16 755,-16 755,-16 830.25,-16 830.25,-16 836.25,-16 842.25,-22 842.25,-28 842.25,-28 842.25,-40 842.25,-40 842.25,-46 836.25,-52 830.25,-52"/>
<text xml:space="preserve" text-anchor="middle" x="792.62" y="-35.75" font-family="Times New Roman,serif" font-size="10.00">Video VAE Decoder</text>
<text xml:space="preserve" text-anchor="middle" x="792.62" y="-24.5" font-family="Times New Roman,serif" font-size="10.00">(3D, reconstruct)</text>
</g>
<!-- T3&#45;&gt;vae_dec -->
<g id="edge21" class="edge">
<title>T3&#45;&gt;vae_dec</title>
<path fill="none" stroke="black" d="M719.06,-87C734.5,-76.14 748.58,-65.96 760.15,-57.48"/>
<polygon fill="black" stroke="black" points="761.56,-59.48 765.74,-53.36 758.65,-55.54 761.56,-59.48"/>
</g>
<!-- CA1&#45;&gt;S2 -->
<g id="edge15" class="edge">
<title>CA1&#45;&gt;S2</title>
<path fill="none" stroke="#95a5a6" stroke-dasharray="5,2" d="M762.07,-309.19C728.26,-295.67 672.19,-273.25 630.52,-256.59"/>
<polygon fill="#95a5a6" stroke="#95a5a6" points="631.46,-254.33 624.06,-254.01 629.65,-258.88 631.46,-254.33"/>
</g>
<!-- CA2&#45;&gt;S3 -->
<g id="edge17" class="edge">
<title>CA2&#45;&gt;S3</title>
<path fill="none" stroke="#95a5a6" stroke-dasharray="5,2" d="M762.19,-457.64C730.07,-459.43 677.78,-462.35 636.86,-464.63"/>
<polygon fill="#95a5a6" stroke="#95a5a6" points="636.94,-462.17 630.09,-465.01 637.21,-467.07 636.94,-462.17"/>
</g>
<!-- video_out -->
<g id="node16" class="node">
<title>video_out</title>
<polygon fill="none" stroke="black" points="960.25,-52 957.25,-56 936.25,-56 933.25,-52 875.25,-52 875.25,-16 960.25,-16 960.25,-52"/>
<text xml:space="preserve" text-anchor="middle" x="917.75" y="-30.12" font-family="Times New Roman,serif" font-size="10.00">Generated Video</text>
</g>
<!-- vae_dec&#45;&gt;video_out -->
<g id="edge19" class="edge">
<title>vae_dec&#45;&gt;video_out</title>
<path fill="none" stroke="black" d="M842.64,-34C850.52,-34 858.69,-34 866.59,-34"/>
<polygon fill="black" stroke="black" points="866.53,-36.45 873.53,-34 866.53,-31.55 866.53,-36.45"/>
</g>
<!-- note -->
<g id="node17" class="node">
<title>note</title>
<polygon fill="none" stroke="black" points="166,-216 0,-216 0,-166 172,-166 172,-210 166,-216"/>
<polyline fill="none" stroke="black" points="166,-216 166,-210"/>
<polyline fill="none" stroke="black" points="172,-210 166,-210"/>
<text xml:space="preserve" text-anchor="middle" x="86" y="-203.45" font-family="Times New Roman,serif" font-size="9.00">Variants:</text>
<text xml:space="preserve" text-anchor="middle" x="86" y="-192.95" font-family="Times New Roman,serif" font-size="9.00">• v1.2+ may use Full 3D Attn blocks</text>
<text xml:space="preserve" text-anchor="middle" x="86" y="-182.45" font-family="Times New Roman,serif" font-size="9.00">• v1.3 adds Skiparse sparse 3D attn</text>
<text xml:space="preserve" text-anchor="middle" x="86" y="-171.95" font-family="Times New Roman,serif" font-size="9.00">(This diagram shows classic 2+1D ST&#45;DiT)</text>
</g>
<!-- cluster_stdit -->
<g id="node18" class="node">
<title>cluster_stdit</title>
<path fill="none" stroke="black" d="M275.38,-209C275.38,-209 233.12,-209 233.12,-209 227.12,-209 221.12,-203 221.12,-197 221.12,-197 221.12,-185 221.12,-185 221.12,-179 227.12,-173 233.12,-173 233.12,-173 275.38,-173 275.38,-173 281.38,-173 287.38,-179 287.38,-185 287.38,-185 287.38,-197 287.38,-197 287.38,-203 281.38,-209 275.38,-209"/>
<text xml:space="preserve" text-anchor="middle" x="254.25" y="-187.12" font-family="Times New Roman,serif" font-size="10.00">cluster_stdit</text>
</g>
<!-- note&#45;&gt;cluster_stdit -->
</g>
</svg>
