<?xml version="1.0" encoding="UTF-8" standalone="no"?>
<!DOCTYPE svg PUBLIC "-//W3C//DTD SVG 1.1//EN"
 "http://www.w3.org/Graphics/SVG/1.1/DTD/svg11.dtd">
<!-- Generated by graphviz version 13.1.0 (20250701.0955)
 -->
<!-- Title: G Pages: 1 -->
<svg width="1389pt" height="228pt"
 viewBox="0.00 0.00 1389.00 228.00" xmlns="http://www.w3.org/2000/svg" xmlns:xlink="http://www.w3.org/1999/xlink">
<g id="graph0" class="graph" transform="scale(1 1) rotate(0) translate(14.4 213.65)">
<title>G</title>
<polygon fill="white" stroke="none" points="-14.4,14.4 -14.4,-213.65 1374.9,-213.65 1374.9,14.4 -14.4,14.4"/>
<text xml:space="preserve" text-anchor="middle" x="680.25" y="-185.75" font-family="Times New Roman,serif" font-size="10.00">Temporal Self&#45;Attention (ST&#45;DiT) — Layered Frames and Colored Token Sequences</text>
<g id="clust1" class="cluster">
<title>cluster_input</title>
<polygon fill="none" stroke="#7f8c8d" stroke-dasharray="5,2" points="8,-65 8,-136 556,-136 556,-65 8,-65"/>
<text xml:space="preserve" text-anchor="middle" x="282" y="-122.5" font-family="Times New Roman,serif" font-size="10.00">Tokenization</text>
</g>
<g id="clust2" class="cluster">
<title>cluster_frames</title>
<path fill="none" stroke="#34495e" d="M595,-73C595,-73 733,-73 733,-73 739,-73 745,-79 745,-85 745,-85 745,-116 745,-116 745,-122 739,-128 733,-128 733,-128 595,-128 595,-128 589,-128 583,-122 583,-116 583,-116 583,-85 583,-85 583,-79 589,-73 595,-73"/>
<text xml:space="preserve" text-anchor="middle" x="664" y="-114.5" font-family="Times New Roman,serif" font-size="10.00" fill="#34495e">Layered frames (time depth)</text>
</g>
<g id="clust3" class="cluster">
<title>cluster_attn</title>
<path fill="none" stroke="#2c3e50" d="M1013.25,-61C1013.25,-61 1340.5,-61 1340.5,-61 1346.5,-61 1352.5,-67 1352.5,-73 1352.5,-73 1352.5,-126 1352.5,-126 1352.5,-132 1346.5,-138 1340.5,-138 1340.5,-138 1013.25,-138 1013.25,-138 1007.25,-138 1001.25,-132 1001.25,-126 1001.25,-126 1001.25,-73 1001.25,-73 1001.25,-67 1007.25,-61 1013.25,-61"/>
<text xml:space="preserve" text-anchor="middle" x="1176.88" y="-124.5" font-family="Times New Roman,serif" font-size="10.00">Temporal Self&#45;Attention</text>
</g>
<!-- video -->
<g id="node1" class="node">
<title>video</title>
<polygon fill="none" stroke="black" points="107,-109 104,-113 83,-113 80,-109 16,-109 16,-73 107,-73 107,-109"/>
<text xml:space="preserve" text-anchor="middle" x="61.5" y="-87.12" font-family="Times New Roman,serif" font-size="10.00">Video (F x H x W)</text>
</g>
<!-- vae -->
<g id="node2" class="node">
<title>vae</title>
<path fill="none" stroke="black" d="M243.25,-109C243.25,-109 162,-109 162,-109 156,-109 150,-103 150,-97 150,-97 150,-85 150,-85 150,-79 156,-73 162,-73 162,-73 243.25,-73 243.25,-73 249.25,-73 255.25,-79 255.25,-85 255.25,-85 255.25,-97 255.25,-97 255.25,-103 249.25,-109 243.25,-109"/>
<text xml:space="preserve" text-anchor="middle" x="202.62" y="-92.75" font-family="Times New Roman,serif" font-size="10.00">Video VAE (optional)</text>
<text xml:space="preserve" text-anchor="middle" x="202.62" y="-81.5" font-family="Times New Roman,serif" font-size="10.00">compress to latents</text>
</g>
<!-- video&#45;&gt;vae -->
<g id="edge1" class="edge">
<title>video&#45;&gt;vae</title>
<path fill="none" stroke="black" d="M107.29,-91C118.15,-91 129.95,-91 141.4,-91"/>
<polygon fill="black" stroke="black" points="141.14,-93.45 148.14,-91 141.14,-88.55 141.14,-93.45"/>
</g>
<!-- latents -->
<g id="node3" class="node">
<title>latents</title>
<path fill="none" stroke="black" d="M385.5,-109C385.5,-109 310.25,-109 310.25,-109 304.25,-109 298.25,-103 298.25,-97 298.25,-97 298.25,-85 298.25,-85 298.25,-79 304.25,-73 310.25,-73 310.25,-73 385.5,-73 385.5,-73 391.5,-73 397.5,-79 397.5,-85 397.5,-85 397.5,-97 397.5,-97 397.5,-103 391.5,-109 385.5,-109"/>
<text xml:space="preserve" text-anchor="middle" x="347.88" y="-87.12" font-family="Times New Roman,serif" font-size="10.00">Latents (F x H&#39; x W&#39;)</text>
</g>
<!-- vae&#45;&gt;latents -->
<g id="edge2" class="edge">
<title>vae&#45;&gt;latents</title>
<path fill="none" stroke="black" d="M255.75,-91C266.71,-91 278.34,-91 289.48,-91"/>
<polygon fill="black" stroke="black" points="289.38,-93.45 296.38,-91 289.38,-88.55 289.38,-93.45"/>
</g>
<!-- patchify -->
<g id="node4" class="node">
<title>patchify</title>
<path fill="none" stroke="black" d="M536,-109C536,-109 452.5,-109 452.5,-109 446.5,-109 440.5,-103 440.5,-97 440.5,-97 440.5,-85 440.5,-85 440.5,-79 446.5,-73 452.5,-73 452.5,-73 536,-73 536,-73 542,-73 548,-79 548,-85 548,-85 548,-97 548,-97 548,-103 542,-109 536,-109"/>
<text xml:space="preserve" text-anchor="middle" x="494.25" y="-92.75" font-family="Times New Roman,serif" font-size="10.00">2D Patchify per frame</text>
<text xml:space="preserve" text-anchor="middle" x="494.25" y="-81.5" font-family="Times New Roman,serif" font-size="10.00">+ Positional Encoding</text>
</g>
<!-- latents&#45;&gt;patchify -->
<g id="edge3" class="edge">
<title>latents&#45;&gt;patchify</title>
<path fill="none" stroke="black" d="M397.75,-91C408.81,-91 420.69,-91 432.18,-91"/>
<polygon fill="black" stroke="black" points="431.95,-93.45 438.95,-91 431.95,-88.55 431.95,-93.45"/>
</g>
<!-- f1 -->
<g id="node5" class="node">
<title>f1</title>
<polygon fill="#e74c3c" stroke="none" points="592,-94 592,-100 598,-100 598,-94 592,-94"/>
<polygon fill="none" stroke="#bdc3c7" points="592,-94 592,-100 598,-100 598,-94 592,-94"/>
<polygon fill="#ecf0f1" stroke="none" points="598,-94 598,-100 604,-100 604,-94 598,-94"/>
<polygon fill="none" stroke="#bdc3c7" points="598,-94 598,-100 604,-100 604,-94 598,-94"/>
<polygon fill="#3498db" stroke="none" points="604,-94 604,-100 610,-100 610,-94 604,-94"/>
<polygon fill="none" stroke="#bdc3c7" points="604,-94 604,-100 610,-100 610,-94 604,-94"/>
<polygon fill="#ecf0f1" stroke="none" points="592,-88 592,-94 598,-94 598,-88 592,-88"/>
<polygon fill="none" stroke="#bdc3c7" points="592,-88 592,-94 598,-94 598,-88 592,-88"/>
<polygon fill="#27ae60" stroke="none" points="598,-88 598,-94 604,-94 604,-88 598,-88"/>
<polygon fill="none" stroke="#bdc3c7" points="598,-88 598,-94 604,-94 604,-88 598,-88"/>
<polygon fill="#ecf0f1" stroke="none" points="604,-88 604,-94 610,-94 610,-88 604,-88"/>
<polygon fill="none" stroke="#bdc3c7" points="604,-88 604,-94 610,-94 610,-88 604,-88"/>
<polygon fill="#ecf0f1" stroke="none" points="592,-82 592,-88 598,-88 598,-82 592,-82"/>
<polygon fill="none" stroke="#bdc3c7" points="592,-82 592,-88 598,-88 598,-82 592,-82"/>
<polygon fill="#ecf0f1" stroke="none" points="598,-82 598,-88 604,-88 604,-82 598,-82"/>
<polygon fill="none" stroke="#bdc3c7" points="598,-82 598,-88 604,-88 604,-82 598,-82"/>
<polygon fill="#ecf0f1" stroke="none" points="604,-82 604,-88 610,-88 610,-82 604,-82"/>
<polygon fill="none" stroke="#bdc3c7" points="604,-82 604,-88 610,-88 610,-82 604,-82"/>
<polygon fill="none" stroke="#bdc3c7" points="591,-81 591,-101 611,-101 611,-81 591,-81"/>
</g>
<!-- patchify&#45;&gt;f1 -->
<g id="edge7" class="edge">
<title>patchify&#45;&gt;f1</title>
<path fill="none" stroke="black" d="M548.24,-91C560.72,-91 573.16,-91 582.71,-91"/>
<polygon fill="black" stroke="black" points="574.49,-93.45 581.49,-91 574.49,-88.55 574.49,-93.45"/>
</g>
<!-- f2 -->
<g id="node6" class="node">
<title>f2</title>
<polygon fill="#e74c3c" stroke="none" points="655,-94 655,-100 661,-100 661,-94 655,-94"/>
<polygon fill="none" stroke="#bdc3c7" points="655,-94 655,-100 661,-100 661,-94 655,-94"/>
<polygon fill="#ecf0f1" stroke="none" points="661,-94 661,-100 667,-100 667,-94 661,-94"/>
<polygon fill="none" stroke="#bdc3c7" points="661,-94 661,-100 667,-100 667,-94 661,-94"/>
<polygon fill="#3498db" stroke="none" points="667,-94 667,-100 673,-100 673,-94 667,-94"/>
<polygon fill="none" stroke="#bdc3c7" points="667,-94 667,-100 673,-100 673,-94 667,-94"/>
<polygon fill="#ecf0f1" stroke="none" points="655,-88 655,-94 661,-94 661,-88 655,-88"/>
<polygon fill="none" stroke="#bdc3c7" points="655,-88 655,-94 661,-94 661,-88 655,-88"/>
<polygon fill="#27ae60" stroke="none" points="661,-88 661,-94 667,-94 667,-88 661,-88"/>
<polygon fill="none" stroke="#bdc3c7" points="661,-88 661,-94 667,-94 667,-88 661,-88"/>
<polygon fill="#ecf0f1" stroke="none" points="667,-88 667,-94 673,-94 673,-88 667,-88"/>
<polygon fill="none" stroke="#bdc3c7" points="667,-88 667,-94 673,-94 673,-88 667,-88"/>
<polygon fill="#ecf0f1" stroke="none" points="655,-82 655,-88 661,-88 661,-82 655,-82"/>
<polygon fill="none" stroke="#bdc3c7" points="655,-82 655,-88 661,-88 661,-82 655,-82"/>
<polygon fill="#ecf0f1" stroke="none" points="661,-82 661,-88 667,-88 667,-82 661,-82"/>
<polygon fill="none" stroke="#bdc3c7" points="661,-82 661,-88 667,-88 667,-82 661,-82"/>
<polygon fill="#ecf0f1" stroke="none" points="667,-82 667,-88 673,-88 673,-82 667,-82"/>
<polygon fill="none" stroke="#bdc3c7" points="667,-82 667,-88 673,-88 673,-82 667,-82"/>
<polygon fill="none" stroke="#bdc3c7" points="654,-81 654,-101 674,-101 674,-81 654,-81"/>
</g>
<!-- f1&#45;&gt;f2 -->
<!-- f1&#45;&gt;f2 -->
<g id="edge8" class="edge">
<title>f1:a1&#45;&gt;f2:a2</title>
<path fill="none" stroke="#e74c3c" stroke-width="1.6" d="M595,-101C595,-124.31 620.72,-103.13 644.88,-98.04"/>
<polygon fill="#e74c3c" stroke="#e74c3c" stroke-width="1.6" points="644.92,-100.5 651.59,-97.27 644.36,-95.63 644.92,-100.5"/>
</g>
<!-- f1&#45;&gt;f2 -->
<g id="edge11" class="edge">
<title>f1:b1&#45;&gt;f2:b2</title>
<path fill="none" stroke="#27ae60" stroke-width="1.6" d="M603.76,-91C610.79,-91 637.2,-91 652.27,-91"/>
<polygon fill="#27ae60" stroke="#27ae60" stroke-width="1.6" points="651.93,-93.45 658.93,-91 651.93,-88.55 651.93,-93.45"/>
</g>
<!-- f3 -->
<g id="node7" class="node">
<title>f3</title>
<polygon fill="#e74c3c" stroke="none" points="718,-94 718,-100 724,-100 724,-94 718,-94"/>
<polygon fill="none" stroke="#bdc3c7" points="718,-94 718,-100 724,-100 724,-94 718,-94"/>
<polygon fill="#ecf0f1" stroke="none" points="724,-94 724,-100 730,-100 730,-94 724,-94"/>
<polygon fill="none" stroke="#bdc3c7" points="724,-94 724,-100 730,-100 730,-94 724,-94"/>
<polygon fill="#3498db" stroke="none" points="730,-94 730,-100 736,-100 736,-94 730,-94"/>
<polygon fill="none" stroke="#bdc3c7" points="730,-94 730,-100 736,-100 736,-94 730,-94"/>
<polygon fill="#ecf0f1" stroke="none" points="718,-88 718,-94 724,-94 724,-88 718,-88"/>
<polygon fill="none" stroke="#bdc3c7" points="718,-88 718,-94 724,-94 724,-88 718,-88"/>
<polygon fill="#27ae60" stroke="none" points="724,-88 724,-94 730,-94 730,-88 724,-88"/>
<polygon fill="none" stroke="#bdc3c7" points="724,-88 724,-94 730,-94 730,-88 724,-88"/>
<polygon fill="#ecf0f1" stroke="none" points="730,-88 730,-94 736,-94 736,-88 730,-88"/>
<polygon fill="none" stroke="#bdc3c7" points="730,-88 730,-94 736,-94 736,-88 730,-88"/>
<polygon fill="#ecf0f1" stroke="none" points="718,-82 718,-88 724,-88 724,-82 718,-82"/>
<polygon fill="none" stroke="#bdc3c7" points="718,-82 718,-88 724,-88 724,-82 718,-82"/>
<polygon fill="#ecf0f1" stroke="none" points="724,-82 724,-88 730,-88 730,-82 724,-82"/>
<polygon fill="none" stroke="#bdc3c7" points="724,-82 724,-88 730,-88 730,-82 724,-82"/>
<polygon fill="#ecf0f1" stroke="none" points="730,-82 730,-88 736,-88 736,-82 730,-82"/>
<polygon fill="none" stroke="#bdc3c7" points="730,-82 730,-88 736,-88 736,-82 730,-82"/>
<polygon fill="none" stroke="#bdc3c7" points="717,-81 717,-101 737,-101 737,-81 717,-81"/>
</g>
<!-- f2&#45;&gt;f3 -->
<!-- f2&#45;&gt;f3 -->
<g id="edge9" class="edge">
<title>f2:a2&#45;&gt;f3:a3</title>
<path fill="none" stroke="#e74c3c" stroke-width="1.6" d="M658,-101C658,-124.31 683.72,-103.13 707.88,-98.04"/>
<polygon fill="#e74c3c" stroke="#e74c3c" stroke-width="1.6" points="707.92,-100.5 714.59,-97.27 707.36,-95.63 707.92,-100.5"/>
</g>
<!-- f2&#45;&gt;f3 -->
<g id="edge12" class="edge">
<title>f2:b2&#45;&gt;f3:b3</title>
<path fill="none" stroke="#27ae60" stroke-width="1.6" d="M666.76,-91C673.79,-91 700.2,-91 715.27,-91"/>
<polygon fill="#27ae60" stroke="#27ae60" stroke-width="1.6" points="714.93,-93.45 721.93,-91 714.93,-88.55 714.93,-93.45"/>
</g>
<!-- a_seq -->
<g id="node10" class="node">
<title>a_seq</title>
<path fill="none" stroke="#e74c3c" d="M925.75,-180C925.75,-180 820.5,-180 820.5,-180 814.5,-180 808.5,-174 808.5,-168 808.5,-168 808.5,-156 808.5,-156 808.5,-150 814.5,-144 820.5,-144 820.5,-144 925.75,-144 925.75,-144 931.75,-144 937.75,-150 937.75,-156 937.75,-156 937.75,-168 937.75,-168 937.75,-174 931.75,-180 925.75,-180"/>
<text xml:space="preserve" text-anchor="middle" x="873.12" y="-163.75" font-family="Times New Roman,serif" font-size="10.00" fill="#e74c3c">Token sequence A</text>
<text xml:space="preserve" text-anchor="middle" x="873.12" y="-152.5" font-family="Times New Roman,serif" font-size="10.00" fill="#e74c3c">(same spatial index across t)</text>
</g>
<!-- f3&#45;&gt;a_seq -->
<g id="edge10" class="edge">
<title>f3:a3&#45;&gt;a_seq</title>
<path fill="none" stroke="#e74c3c" stroke-width="1.6" d="M721,-101C721,-137.93 760.29,-153.06 798.81,-159.02"/>
<polygon fill="#e74c3c" stroke="#e74c3c" stroke-width="1.6" points="798.37,-161.43 805.64,-159.95 799.03,-156.58 798.37,-161.43"/>
</g>
<!-- b_seq -->
<g id="node11" class="node">
<title>b_seq</title>
<path fill="none" stroke="#27ae60" d="M925.75,-108C925.75,-108 820.5,-108 820.5,-108 814.5,-108 808.5,-102 808.5,-96 808.5,-96 808.5,-84 808.5,-84 808.5,-78 814.5,-72 820.5,-72 820.5,-72 925.75,-72 925.75,-72 931.75,-72 937.75,-78 937.75,-84 937.75,-84 937.75,-96 937.75,-96 937.75,-102 931.75,-108 925.75,-108"/>
<text xml:space="preserve" text-anchor="middle" x="873.12" y="-91.75" font-family="Times New Roman,serif" font-size="10.00" fill="#27ae60">Token sequence B</text>
<text xml:space="preserve" text-anchor="middle" x="873.12" y="-80.5" font-family="Times New Roman,serif" font-size="10.00" fill="#27ae60">(same spatial index across t)</text>
</g>
<!-- f3&#45;&gt;b_seq -->
<g id="edge13" class="edge">
<title>f3:b3&#45;&gt;b_seq</title>
<path fill="none" stroke="#27ae60" stroke-width="1.6" d="M729.62,-90.99C736.94,-90.94 767.93,-90.72 799.15,-90.51"/>
<polygon fill="#27ae60" stroke="#27ae60" stroke-width="1.6" points="798.98,-92.96 805.96,-90.46 798.95,-88.06 798.98,-92.96"/>
</g>
<!-- temp_attn -->
<g id="node8" class="node">
<title>temp_attn</title>
<path fill="#eef7ff" stroke="black" d="M1158,-110.88C1158,-110.88 1021.25,-110.88 1021.25,-110.88 1015.25,-110.88 1009.25,-104.88 1009.25,-98.88 1009.25,-98.88 1009.25,-81.12 1009.25,-81.12 1009.25,-75.12 1015.25,-69.12 1021.25,-69.12 1021.25,-69.12 1158,-69.12 1158,-69.12 1164,-69.12 1170,-75.12 1170,-81.12 1170,-81.12 1170,-98.88 1170,-98.88 1170,-104.88 1164,-110.88 1158,-110.88"/>
<text xml:space="preserve" text-anchor="middle" x="1089.62" y="-97.38" font-family="Times New Roman,serif" font-size="10.00">Temporal Self&#45;Attention</text>
<text xml:space="preserve" text-anchor="middle" x="1089.62" y="-86.12" font-family="Times New Roman,serif" font-size="10.00">(1D along time per spatial location)</text>
<text xml:space="preserve" text-anchor="middle" x="1089.62" y="-74.88" font-family="Times New Roman,serif" font-size="10.00">mask: causal or bidirectional</text>
</g>
<!-- out_tokens -->
<g id="node9" class="node">
<title>out_tokens</title>
<path fill="none" stroke="black" d="M1332.5,-108C1332.5,-108 1225,-108 1225,-108 1219,-108 1213,-102 1213,-96 1213,-96 1213,-84 1213,-84 1213,-78 1219,-72 1225,-72 1225,-72 1332.5,-72 1332.5,-72 1338.5,-72 1344.5,-78 1344.5,-84 1344.5,-84 1344.5,-96 1344.5,-96 1344.5,-102 1338.5,-108 1332.5,-108"/>
<text xml:space="preserve" text-anchor="middle" x="1278.75" y="-91.75" font-family="Times New Roman,serif" font-size="10.00">Updated tokens per location</text>
<text xml:space="preserve" text-anchor="middle" x="1278.75" y="-80.5" font-family="Times New Roman,serif" font-size="10.00">(ready for next block)</text>
</g>
<!-- temp_attn&#45;&gt;out_tokens -->
<g id="edge6" class="edge">
<title>temp_attn&#45;&gt;out_tokens</title>
<path fill="none" stroke="black" d="M1170.25,-90C1181.51,-90 1193.04,-90 1204.18,-90"/>
<polygon fill="black" stroke="black" points="1204.09,-92.45 1211.09,-90 1204.09,-87.55 1204.09,-92.45"/>
</g>
<!-- a_seq&#45;&gt;temp_attn -->
<g id="edge14" class="edge">
<title>a_seq&#45;&gt;temp_attn</title>
<path fill="none" stroke="#e74c3c" d="M929.09,-143.55C955.86,-134.56 988.4,-123.64 1017.08,-114.01"/>
<polygon fill="#e74c3c" stroke="#e74c3c" points="1017.77,-116.37 1023.63,-111.82 1016.21,-111.72 1017.77,-116.37"/>
</g>
<!-- b_seq&#45;&gt;temp_attn -->
<g id="edge15" class="edge">
<title>b_seq&#45;&gt;temp_attn</title>
<path fill="none" stroke="#27ae60" d="M938.19,-90C957.81,-90 979.74,-90 1000.66,-90"/>
<polygon fill="#27ae60" stroke="#27ae60" points="1000.41,-92.45 1007.41,-90 1000.41,-87.55 1000.41,-92.45"/>
</g>
<!-- legend -->
<g id="node12" class="node">
<title>legend</title>
<polygon fill="none" stroke="black" points="960.25,-36 780,-36 780,0 966.25,0 966.25,-30 960.25,-36"/>
<polyline fill="none" stroke="black" points="960.25,-36 960.25,-30"/>
<polyline fill="none" stroke="black" points="966.25,-30 960.25,-30"/>
<text xml:space="preserve" text-anchor="middle" x="873.12" y="-19.95" font-family="Times New Roman,serif" font-size="9.00">Colors denote distinct tokens (spatial positions).</text>
<text xml:space="preserve" text-anchor="middle" x="873.12" y="-9.45" font-family="Times New Roman,serif" font-size="9.00">Layered grids represent frames over time.</text>
</g>
<!-- legend&#45;&gt;temp_attn -->
</g>
</svg>
