<?xml version="1.0" encoding="UTF-8" standalone="no"?>
<!DOCTYPE svg PUBLIC "-//W3C//DTD SVG 1.1//EN"
 "http://www.w3.org/Graphics/SVG/1.1/DTD/svg11.dtd">
<!-- Generated by graphviz version 13.1.0 (20250701.0955)
 -->
<!-- Title: G Pages: 1 -->
<svg width="1737pt" height="562pt"
 viewBox="0.00 0.00 1737.00 562.00" xmlns="http://www.w3.org/2000/svg" xmlns:xlink="http://www.w3.org/1999/xlink">
<g id="graph0" class="graph" transform="scale(1 1) rotate(0) translate(14.4 547.4)">
<title>G</title>
<polygon fill="white" stroke="none" points="-14.4,14.4 -14.4,-547.4 1722.15,-547.4 1722.15,14.4 -14.4,14.4"/>
<text xml:space="preserve" text-anchor="middle" x="853.88" y="-515.7" font-family="Times New Roman,serif" font-size="14.00">Trajectory Error (TrajError) — Computation Overview</text>
<g id="clust1" class="cluster">
<title>cluster_inputs</title>
<polygon fill="none" stroke="#7f8c8d" stroke-dasharray="5,2" points="8,-60.5 8,-222.5 194.5,-222.5 194.5,-60.5 8,-60.5"/>
<text xml:space="preserve" text-anchor="middle" x="101.25" y="-205.2" font-family="Times New Roman,serif" font-size="14.00">Inputs</text>
</g>
<g id="clust2" class="cluster">
<title>cluster_extract</title>
<path fill="none" stroke="#34495e" d="M241.5,-142.5C241.5,-142.5 656.25,-142.5 656.25,-142.5 662.25,-142.5 668.25,-148.5 668.25,-154.5 668.25,-154.5 668.25,-212.5 668.25,-212.5 668.25,-218.5 662.25,-224.5 656.25,-224.5 656.25,-224.5 241.5,-224.5 241.5,-224.5 235.5,-224.5 229.5,-218.5 229.5,-212.5 229.5,-212.5 229.5,-154.5 229.5,-154.5 229.5,-148.5 235.5,-142.5 241.5,-142.5"/>
<text xml:space="preserve" text-anchor="middle" x="448.88" y="-207.2" font-family="Times New Roman,serif" font-size="14.00">Extraction</text>
</g>
<g id="clust3" class="cluster">
<title>cluster_match</title>
<path fill="none" stroke="#34495e" d="M715.25,-93.5C715.25,-93.5 1037.5,-93.5 1037.5,-93.5 1043.5,-93.5 1049.5,-99.5 1049.5,-105.5 1049.5,-105.5 1049.5,-158.5 1049.5,-158.5 1049.5,-164.5 1043.5,-170.5 1037.5,-170.5 1037.5,-170.5 715.25,-170.5 715.25,-170.5 709.25,-170.5 703.25,-164.5 703.25,-158.5 703.25,-158.5 703.25,-105.5 703.25,-105.5 703.25,-99.5 709.25,-93.5 715.25,-93.5"/>
<text xml:space="preserve" text-anchor="middle" x="876.38" y="-153.2" font-family="Times New Roman,serif" font-size="14.00">Matching</text>
</g>
<g id="clust4" class="cluster">
<title>cluster_illustration</title>
<path fill="none" stroke="#2c3e50" d="M1199.62,-98.5C1199.62,-98.5 1687.75,-98.5 1687.75,-98.5 1693.75,-98.5 1699.75,-104.5 1699.75,-110.5 1699.75,-110.5 1699.75,-488.5 1699.75,-488.5 1699.75,-494.5 1693.75,-500.5 1687.75,-500.5 1687.75,-500.5 1199.62,-500.5 1199.62,-500.5 1193.62,-500.5 1187.62,-494.5 1187.62,-488.5 1187.62,-488.5 1187.62,-110.5 1187.62,-110.5 1187.62,-104.5 1193.62,-98.5 1199.62,-98.5"/>
<text xml:space="preserve" text-anchor="middle" x="1443.69" y="-483.2" font-family="Times New Roman,serif" font-size="14.00">Per&#45;frame center&#45;of&#45;mask distance over time</text>
</g>
<!-- gt -->
<g id="node1" class="node">
<title>gt</title>
<path fill="none" stroke="black" d="M174.5,-110C174.5,-110 28,-110 28,-110 22,-110 16,-104 16,-98 16,-98 16,-81 16,-81 16,-75 22,-69 28,-69 28,-69 174.5,-69 174.5,-69 180.5,-69 186.5,-75 186.5,-81 186.5,-81 186.5,-98 186.5,-98 186.5,-104 180.5,-110 174.5,-110"/>
<text xml:space="preserve" text-anchor="middle" x="101.25" y="-92.7" font-family="Times New Roman,serif" font-size="14.00">Target Trajectories</text>
<text xml:space="preserve" text-anchor="middle" x="101.25" y="-76.2" font-family="Times New Roman,serif" font-size="14.00">(user or dense&#45;flow derived)</text>
</g>
<!-- match -->
<g id="node5" class="node">
<title>match</title>
<path fill="none" stroke="black" d="M1029.5,-137.5C1029.5,-137.5 723.25,-137.5 723.25,-137.5 717.25,-137.5 711.25,-131.5 711.25,-125.5 711.25,-125.5 711.25,-113.5 711.25,-113.5 711.25,-107.5 717.25,-101.5 723.25,-101.5 723.25,-101.5 1029.5,-101.5 1029.5,-101.5 1035.5,-101.5 1041.5,-107.5 1041.5,-113.5 1041.5,-113.5 1041.5,-125.5 1041.5,-125.5 1041.5,-131.5 1035.5,-137.5 1029.5,-137.5"/>
<text xml:space="preserve" text-anchor="middle" x="876.38" y="-114.45" font-family="Times New Roman,serif" font-size="14.00">Pair trajectories by ID (or Hungarian matching if needed)</text>
</g>
<!-- gt&#45;&gt;match -->
<g id="edge16" class="edge">
<title>gt&#45;&gt;match</title>
<path fill="none" stroke="black" d="M186.83,-92.78C309.86,-97.56 540.95,-106.52 701.29,-112.74"/>
<polygon fill="black" stroke="black" points="701.17,-115.54 709.27,-113.05 701.39,-109.95 701.17,-115.54"/>
</g>
<!-- genvid -->
<g id="node2" class="node">
<title>genvid</title>
<polygon fill="none" stroke="black" points="154.62,-189.5 151.62,-193.5 130.62,-193.5 127.62,-189.5 47.88,-189.5 47.88,-153.5 154.62,-153.5 154.62,-189.5"/>
<text xml:space="preserve" text-anchor="middle" x="101.25" y="-166.45" font-family="Times New Roman,serif" font-size="14.00">Generated Video</text>
</g>
<!-- tracker -->
<g id="node3" class="node">
<title>tracker</title>
<path fill="none" stroke="black" d="M455.25,-192C455.25,-192 249.5,-192 249.5,-192 243.5,-192 237.5,-186 237.5,-180 237.5,-180 237.5,-163 237.5,-163 237.5,-157 243.5,-151 249.5,-151 249.5,-151 455.25,-151 455.25,-151 461.25,-151 467.25,-157 467.25,-163 467.25,-163 467.25,-180 467.25,-180 467.25,-186 461.25,-192 455.25,-192"/>
<text xml:space="preserve" text-anchor="middle" x="352.38" y="-174.7" font-family="Times New Roman,serif" font-size="14.00">Object position estimator</text>
<text xml:space="preserve" text-anchor="middle" x="352.38" y="-158.2" font-family="Times New Roman,serif" font-size="14.00">(e.g., segmentation → center&#45;of&#45;mask)</text>
</g>
<!-- genvid&#45;&gt;tracker -->
<g id="edge1" class="edge">
<title>genvid&#45;&gt;tracker</title>
<path fill="none" stroke="black" d="M155.08,-171.5C176.45,-171.5 202.1,-171.5 227.69,-171.5"/>
<polygon fill="black" stroke="black" points="227.6,-174.3 235.6,-171.5 227.6,-168.7 227.6,-174.3"/>
</g>
<!-- pred -->
<g id="node4" class="node">
<title>pred</title>
<path fill="none" stroke="black" d="M648.25,-192C648.25,-192 530.25,-192 530.25,-192 524.25,-192 518.25,-186 518.25,-180 518.25,-180 518.25,-163 518.25,-163 518.25,-157 524.25,-151 530.25,-151 530.25,-151 648.25,-151 648.25,-151 654.25,-151 660.25,-157 660.25,-163 660.25,-163 660.25,-180 660.25,-180 660.25,-186 654.25,-192 648.25,-192"/>
<text xml:space="preserve" text-anchor="middle" x="589.25" y="-174.7" font-family="Times New Roman,serif" font-size="14.00">Predicted Trajectories</text>
<text xml:space="preserve" text-anchor="middle" x="589.25" y="-158.2" font-family="Times New Roman,serif" font-size="14.00">(from generated video)</text>
</g>
<!-- tracker&#45;&gt;pred -->
<g id="edge2" class="edge">
<title>tracker&#45;&gt;pred</title>
<path fill="none" stroke="black" d="M467.72,-171.5C481.52,-171.5 495.37,-171.5 508.53,-171.5"/>
<polygon fill="black" stroke="black" points="508.45,-174.3 516.45,-171.5 508.45,-168.7 508.45,-174.3"/>
</g>
<!-- pred&#45;&gt;match -->
<g id="edge17" class="edge">
<title>pred&#45;&gt;match</title>
<path fill="none" stroke="black" d="M660.73,-158.65C692.07,-152.93 729.71,-146.07 764.66,-139.69"/>
<polygon fill="black" stroke="black" points="765.1,-142.46 772.47,-138.27 764.1,-136.95 765.1,-142.46"/>
</g>
<!-- T1 -->
<g id="node6" class="node">
<title>T1</title>
<text xml:space="preserve" text-anchor="middle" x="1244.12" y="-119.45" font-family="Times New Roman,serif" font-size="14.00">t=1</text>
</g>
<!-- match&#45;&gt;T1 -->
<g id="edge18" class="edge">
<title>match&#45;&gt;T1</title>
<path fill="none" stroke="black" d="M1041.79,-121.75C1090.08,-122.41 1140.1,-123.09 1178.2,-123.61"/>
<polygon fill="black" stroke="black" points="1178.07,-126.41 1186.11,-123.72 1178.15,-120.81 1178.07,-126.41"/>
</g>
<!-- agg -->
<g id="node15" class="node">
<title>agg</title>
<polygon fill="none" stroke="black" points="1389.75,-58 1092.5,-58 1092.5,-5 1395.75,-5 1395.75,-52 1389.75,-58"/>
<polyline fill="none" stroke="black" points="1389.75,-58 1389.75,-52"/>
<polyline fill="none" stroke="black" points="1395.75,-52 1389.75,-52"/>
<text xml:space="preserve" text-anchor="middle" x="1244.12" y="-41.65" font-family="Times New Roman,serif" font-size="13.00">Per object: TrajError = (1/T) ∑_t ||c_pred,t − c_gt,t||_1</text>
<text xml:space="preserve" text-anchor="middle" x="1244.12" y="-26.65" font-family="Times New Roman,serif" font-size="13.00">where c = center of object mask (per frame)</text>
<text xml:space="preserve" text-anchor="middle" x="1244.12" y="-11.65" font-family="Times New Roman,serif" font-size="13.00">Dataset score: average over objects and clips</text>
</g>
<!-- match&#45;&gt;agg -->
<g id="edge19" class="edge">
<title>match&#45;&gt;agg</title>
<path fill="none" stroke="black" d="M954.05,-101.05C1002.66,-89.36 1066.6,-73.97 1121.98,-60.65"/>
<polygon fill="black" stroke="black" points="1122.55,-63.39 1129.67,-58.8 1121.24,-57.95 1122.55,-63.39"/>
</g>
<!-- gt1m -->
<g id="node9" class="node">
<title>gt1m</title>
<path fill="none" stroke="black" d="M1276.88,-305.25C1276.88,-305.25 1211.38,-305.25 1211.38,-305.25 1205.38,-305.25 1199.38,-299.25 1199.38,-293.25 1199.38,-293.25 1199.38,-239.75 1199.38,-239.75 1199.38,-233.75 1205.38,-227.75 1211.38,-227.75 1211.38,-227.75 1276.88,-227.75 1276.88,-227.75 1282.88,-227.75 1288.88,-233.75 1288.88,-239.75 1288.88,-239.75 1288.88,-293.25 1288.88,-293.25 1288.88,-299.25 1282.88,-305.25 1276.88,-305.25"/>
<text xml:space="preserve" text-anchor="start" x="1216.38" y="-279.95" font-family="Times New Roman,serif" font-weight="bold" font-size="14.00">GT mask</text>
<text xml:space="preserve" text-anchor="start" x="1220.5" y="-245.65" font-family="Times New Roman,serif" font-size="18.00" fill="#3498db">●</text>
<text xml:space="preserve" text-anchor="start" x="1231" y="-245.65" font-family="Times New Roman,serif" font-size="14.00"> center</text>
<polygon fill="none" stroke="black" points="1207.38,-231.75 1207.38,-301.25 1280.88,-301.25 1280.88,-231.75 1207.38,-231.75"/>
</g>
<!-- T1&#45;&gt;gt1m -->
<!-- T2 -->
<g id="node7" class="node">
<title>T2</title>
<text xml:space="preserve" text-anchor="middle" x="1495.25" y="-119.45" font-family="Times New Roman,serif" font-size="14.00">t=2</text>
</g>
<!-- gt2m -->
<g id="node10" class="node">
<title>gt2m</title>
<path fill="none" stroke="black" d="M1528,-305.25C1528,-305.25 1462.5,-305.25 1462.5,-305.25 1456.5,-305.25 1450.5,-299.25 1450.5,-293.25 1450.5,-293.25 1450.5,-239.75 1450.5,-239.75 1450.5,-233.75 1456.5,-227.75 1462.5,-227.75 1462.5,-227.75 1528,-227.75 1528,-227.75 1534,-227.75 1540,-233.75 1540,-239.75 1540,-239.75 1540,-293.25 1540,-293.25 1540,-299.25 1534,-305.25 1528,-305.25"/>
<text xml:space="preserve" text-anchor="start" x="1467.5" y="-279.95" font-family="Times New Roman,serif" font-weight="bold" font-size="14.00">GT mask</text>
<text xml:space="preserve" text-anchor="start" x="1471.62" y="-245.65" font-family="Times New Roman,serif" font-size="18.00" fill="#3498db">●</text>
<text xml:space="preserve" text-anchor="start" x="1482.12" y="-245.65" font-family="Times New Roman,serif" font-size="14.00"> center</text>
<polygon fill="none" stroke="black" points="1458.5,-231.75 1458.5,-301.25 1532,-301.25 1532,-231.75 1458.5,-231.75"/>
</g>
<!-- T2&#45;&gt;gt2m -->
<!-- T3 -->
<g id="node8" class="node">
<title>T3</title>
<text xml:space="preserve" text-anchor="middle" x="1643.25" y="-119.45" font-family="Times New Roman,serif" font-size="14.00">t=3</text>
</g>
<!-- gt3m -->
<g id="node11" class="node">
<title>gt3m</title>
<path fill="none" stroke="black" d="M1676,-305.25C1676,-305.25 1610.5,-305.25 1610.5,-305.25 1604.5,-305.25 1598.5,-299.25 1598.5,-293.25 1598.5,-293.25 1598.5,-239.75 1598.5,-239.75 1598.5,-233.75 1604.5,-227.75 1610.5,-227.75 1610.5,-227.75 1676,-227.75 1676,-227.75 1682,-227.75 1688,-233.75 1688,-239.75 1688,-239.75 1688,-293.25 1688,-293.25 1688,-299.25 1682,-305.25 1676,-305.25"/>
<text xml:space="preserve" text-anchor="start" x="1615.5" y="-279.95" font-family="Times New Roman,serif" font-weight="bold" font-size="14.00">GT mask</text>
<text xml:space="preserve" text-anchor="start" x="1619.62" y="-245.65" font-family="Times New Roman,serif" font-size="18.00" fill="#3498db">●</text>
<text xml:space="preserve" text-anchor="start" x="1630.12" y="-245.65" font-family="Times New Roman,serif" font-size="14.00"> center</text>
<polygon fill="none" stroke="black" points="1606.5,-231.75 1606.5,-301.25 1680,-301.25 1680,-231.75 1606.5,-231.75"/>
</g>
<!-- T3&#45;&gt;gt3m -->
<!-- gt1m&#45;&gt;gt2m -->
<g id="edge9" class="edge">
<title>gt1m&#45;&gt;gt2m</title>
<path fill="none" stroke="#3498db" d="M1289.09,-266.5C1332.45,-266.5 1398.64,-266.5 1444.04,-266.5"/>
<polygon fill="#3498db" stroke="#3498db" points="1443.79,-268.25 1448.79,-266.5 1443.79,-264.75 1443.79,-268.25"/>
</g>
<!-- pr1m -->
<g id="node12" class="node">
<title>pr1m</title>
<path fill="none" stroke="black" d="M1280.62,-468.25C1280.62,-468.25 1207.62,-468.25 1207.62,-468.25 1201.62,-468.25 1195.62,-462.25 1195.62,-456.25 1195.62,-456.25 1195.62,-402.75 1195.62,-402.75 1195.62,-396.75 1201.62,-390.75 1207.62,-390.75 1207.62,-390.75 1280.62,-390.75 1280.62,-390.75 1286.62,-390.75 1292.62,-396.75 1292.62,-402.75 1292.62,-402.75 1292.62,-456.25 1292.62,-456.25 1292.62,-462.25 1286.62,-468.25 1280.62,-468.25"/>
<text xml:space="preserve" text-anchor="start" x="1212.62" y="-442.95" font-family="Times New Roman,serif" font-weight="bold" font-size="14.00">Pred mask</text>
<text xml:space="preserve" text-anchor="start" x="1220.5" y="-408.65" font-family="Times New Roman,serif" font-size="18.00" fill="#e67e22">●</text>
<text xml:space="preserve" text-anchor="start" x="1231" y="-408.65" font-family="Times New Roman,serif" font-size="14.00"> center</text>
<polygon fill="none" stroke="black" points="1203.62,-394.75 1203.62,-464.25 1284.62,-464.25 1284.62,-394.75 1203.62,-394.75"/>
</g>
<!-- gt1m&#45;&gt;pr1m -->
<!-- gt1m&#45;&gt;pr1m -->
<g id="edge13" class="edge">
<title>gt1m&#45;&gt;pr1m</title>
<path fill="none" stroke="#c0392b" stroke-dasharray="5,2" d="M1244.12,-305.54C1244.12,-328.24 1244.12,-357.04 1244.12,-381.16"/>
<polygon fill="#c0392b" stroke="#c0392b" points="1241.33,-380.98 1244.13,-388.98 1246.93,-380.98 1241.33,-380.98"/>
<text xml:space="preserve" text-anchor="middle" x="1234" y="-343.73" font-family="Times New Roman,serif" font-size="12.00">d1 (L1)</text>
</g>
<!-- gt2m&#45;&gt;gt3m -->
<g id="edge10" class="edge">
<title>gt2m&#45;&gt;gt3m</title>
<path fill="none" stroke="#3498db" d="M1540.45,-266.5C1556.75,-266.5 1575.32,-266.5 1592.1,-266.5"/>
<polygon fill="#3498db" stroke="#3498db" points="1591.69,-268.25 1596.69,-266.5 1591.69,-264.75 1591.69,-268.25"/>
</g>
<!-- pr2m -->
<g id="node13" class="node">
<title>pr2m</title>
<path fill="none" stroke="black" d="M1531.75,-468.25C1531.75,-468.25 1458.75,-468.25 1458.75,-468.25 1452.75,-468.25 1446.75,-462.25 1446.75,-456.25 1446.75,-456.25 1446.75,-402.75 1446.75,-402.75 1446.75,-396.75 1452.75,-390.75 1458.75,-390.75 1458.75,-390.75 1531.75,-390.75 1531.75,-390.75 1537.75,-390.75 1543.75,-396.75 1543.75,-402.75 1543.75,-402.75 1543.75,-456.25 1543.75,-456.25 1543.75,-462.25 1537.75,-468.25 1531.75,-468.25"/>
<text xml:space="preserve" text-anchor="start" x="1463.75" y="-442.95" font-family="Times New Roman,serif" font-weight="bold" font-size="14.00">Pred mask</text>
<text xml:space="preserve" text-anchor="start" x="1471.62" y="-408.65" font-family="Times New Roman,serif" font-size="18.00" fill="#e67e22">●</text>
<text xml:space="preserve" text-anchor="start" x="1482.12" y="-408.65" font-family="Times New Roman,serif" font-size="14.00"> center</text>
<polygon fill="none" stroke="black" points="1454.75,-394.75 1454.75,-464.25 1535.75,-464.25 1535.75,-394.75 1454.75,-394.75"/>
</g>
<!-- gt2m&#45;&gt;pr2m -->
<!-- gt2m&#45;&gt;pr2m -->
<g id="edge14" class="edge">
<title>gt2m&#45;&gt;pr2m</title>
<path fill="none" stroke="#c0392b" stroke-dasharray="5,2" d="M1495.25,-305.54C1495.25,-328.24 1495.25,-357.04 1495.25,-381.16"/>
<polygon fill="#c0392b" stroke="#c0392b" points="1492.45,-380.98 1495.25,-388.98 1498.05,-380.98 1492.45,-380.98"/>
<text xml:space="preserve" text-anchor="middle" x="1485.12" y="-343.73" font-family="Times New Roman,serif" font-size="12.00">d2 (L1)</text>
</g>
<!-- pr3m -->
<g id="node14" class="node">
<title>pr3m</title>
<path fill="none" stroke="black" d="M1679.75,-468.25C1679.75,-468.25 1606.75,-468.25 1606.75,-468.25 1600.75,-468.25 1594.75,-462.25 1594.75,-456.25 1594.75,-456.25 1594.75,-402.75 1594.75,-402.75 1594.75,-396.75 1600.75,-390.75 1606.75,-390.75 1606.75,-390.75 1679.75,-390.75 1679.75,-390.75 1685.75,-390.75 1691.75,-396.75 1691.75,-402.75 1691.75,-402.75 1691.75,-456.25 1691.75,-456.25 1691.75,-462.25 1685.75,-468.25 1679.75,-468.25"/>
<text xml:space="preserve" text-anchor="start" x="1611.75" y="-442.95" font-family="Times New Roman,serif" font-weight="bold" font-size="14.00">Pred mask</text>
<text xml:space="preserve" text-anchor="start" x="1619.62" y="-408.65" font-family="Times New Roman,serif" font-size="18.00" fill="#e67e22">●</text>
<text xml:space="preserve" text-anchor="start" x="1630.12" y="-408.65" font-family="Times New Roman,serif" font-size="14.00"> center</text>
<polygon fill="none" stroke="black" points="1602.75,-394.75 1602.75,-464.25 1683.75,-464.25 1683.75,-394.75 1602.75,-394.75"/>
</g>
<!-- gt3m&#45;&gt;pr3m -->
<!-- gt3m&#45;&gt;pr3m -->
<g id="edge15" class="edge">
<title>gt3m&#45;&gt;pr3m</title>
<path fill="none" stroke="#c0392b" stroke-dasharray="5,2" d="M1643.25,-305.54C1643.25,-328.24 1643.25,-357.04 1643.25,-381.16"/>
<polygon fill="#c0392b" stroke="#c0392b" points="1640.45,-380.98 1643.25,-388.98 1646.05,-380.98 1640.45,-380.98"/>
<text xml:space="preserve" text-anchor="middle" x="1633.12" y="-343.73" font-family="Times New Roman,serif" font-size="12.00">d3 (L1)</text>
</g>
<!-- pr1m&#45;&gt;pr2m -->
<g id="edge11" class="edge">
<title>pr1m&#45;&gt;pr2m</title>
<path fill="none" stroke="#e67e22" d="M1292.86,-429.5C1335.01,-429.5 1396.42,-429.5 1440.33,-429.5"/>
<polygon fill="#e67e22" stroke="#e67e22" points="1440.16,-431.25 1445.16,-429.5 1440.16,-427.75 1440.16,-431.25"/>
</g>
<!-- pr2m&#45;&gt;pr3m -->
<g id="edge12" class="edge">
<title>pr2m&#45;&gt;pr3m</title>
<path fill="none" stroke="#e67e22" d="M1544.06,-429.5C1558.17,-429.5 1573.72,-429.5 1588.2,-429.5"/>
<polygon fill="#e67e22" stroke="#e67e22" points="1587.82,-431.25 1592.82,-429.5 1587.82,-427.75 1587.82,-431.25"/>
</g>
<!-- legend -->
<g id="node16" class="node">
<title>legend</title>
<polygon fill="none" stroke="black" points="1020.88,-53 725.88,-53 725.88,0 1026.88,0 1026.88,-47 1020.88,-53"/>
<polyline fill="none" stroke="black" points="1020.88,-53 1020.88,-47"/>
<polyline fill="none" stroke="black" points="1026.88,-47 1020.88,-47"/>
<text xml:space="preserve" text-anchor="middle" x="876.38" y="-36.65" font-family="Times New Roman,serif" font-size="13.00">Blue = GT path, Orange = Pred path.</text>
<text xml:space="preserve" text-anchor="middle" x="876.38" y="-21.65" font-family="Times New Roman,serif" font-size="13.00">Points = centers of object masks (paper).</text>
<text xml:space="preserve" text-anchor="middle" x="876.38" y="-6.65" font-family="Times New Roman,serif" font-size="13.00">Red dashed = per&#45;frame L1 distance between centers.</text>
</g>
<!-- legend&#45;&gt;agg -->
</g>
</svg>
