<?xml version="1.0" encoding="UTF-8" standalone="no"?>
<!DOCTYPE svg PUBLIC "-//W3C//DTD SVG 1.1//EN"
 "http://www.w3.org/Graphics/SVG/1.1/DTD/svg11.dtd">
<!-- Generated by graphviz version 13.1.0 (20250701.0955)
 -->
<!-- Title: ToraTwoStageTraining Pages: 1 -->
<svg width="1426pt" height="601pt"
 viewBox="0.00 0.00 1426.00 601.00" xmlns="http://www.w3.org/2000/svg" xmlns:xlink="http://www.w3.org/1999/xlink">
<g id="graph0" class="graph" transform="scale(1 1) rotate(0) translate(4 597)">
<title>ToraTwoStageTraining</title>
<polygon fill="white" stroke="none" points="-4,4 -4,-597 1422,-597 1422,4 -4,4"/>
<text xml:space="preserve" text-anchor="middle" x="709" y="-577.6" font-family="Times New Roman,serif" font-size="12.00">Tora Two&#45;Stage Training Pipeline</text>
<g id="clust1" class="cluster">
<title>cluster_data</title>
<polygon fill="none" stroke="#999999" stroke-dasharray="5,2" points="8,-488.5 8,-562.75 695,-562.75 695,-488.5 8,-488.5"/>
<text xml:space="preserve" text-anchor="middle" x="351.5" y="-547.35" font-family="Times New Roman,serif" font-size="12.00">Data Processing</text>
</g>
<g id="clust4" class="cluster">
<title>cluster_stage1</title>
<polygon fill="#e8f0fe" stroke="#e8f0fe" points="417,-90.25 417,-480.5 641,-480.5 641,-90.25 417,-90.25"/>
<text xml:space="preserve" text-anchor="middle" x="529" y="-465.1" font-family="Times New Roman,serif" font-size="12.00">Stage 1: Dense Flow Supervision</text>
</g>
<g id="clust5" class="cluster">
<title>cluster_stage2</title>
<polygon fill="#e8f5e9" stroke="#e8f5e9" points="650,-90.25 650,-480.5 886,-480.5 886,-90.25 650,-90.25"/>
<text xml:space="preserve" text-anchor="middle" x="768" y="-465.1" font-family="Times New Roman,serif" font-size="12.00">Stage 2: Sparse Trajectory Supervision</text>
</g>
<g id="clust11" class="cluster">
<title>cluster_infer</title>
<polygon fill="none" stroke="#999999" stroke-dasharray="5,2" points="423,-8 423,-82.25 1410,-82.25 1410,-8 423,-8"/>
<text xml:space="preserve" text-anchor="middle" x="916.5" y="-66.85" font-family="Times New Roman,serif" font-size="12.00">Inference</text>
</g>
<!-- Raw -->
<g id="node1" class="node">
<title>Raw</title>
<path fill="none" stroke="black" d="M74,-532.5C74,-532.5 28,-532.5 28,-532.5 22,-532.5 16,-526.5 16,-520.5 16,-520.5 16,-508.5 16,-508.5 16,-502.5 22,-496.5 28,-496.5 28,-496.5 74,-496.5 74,-496.5 80,-496.5 86,-502.5 86,-508.5 86,-508.5 86,-520.5 86,-520.5 86,-526.5 80,-532.5 74,-532.5"/>
<text xml:space="preserve" text-anchor="middle" x="51" y="-510.8" font-family="Times New Roman,serif" font-size="11.00">Raw Videos</text>
</g>
<!-- Scene -->
<g id="node2" class="node">
<title>Scene</title>
<path fill="none" stroke="black" d="M194.88,-532.5C194.88,-532.5 127.12,-532.5 127.12,-532.5 121.12,-532.5 115.12,-526.5 115.12,-520.5 115.12,-520.5 115.12,-508.5 115.12,-508.5 115.12,-502.5 121.12,-496.5 127.12,-496.5 127.12,-496.5 194.88,-496.5 194.88,-496.5 200.88,-496.5 206.88,-502.5 206.88,-508.5 206.88,-508.5 206.88,-520.5 206.88,-520.5 206.88,-526.5 200.88,-532.5 194.88,-532.5"/>
<text xml:space="preserve" text-anchor="middle" x="161" y="-517.55" font-family="Times New Roman,serif" font-size="11.00">Scene Detection</text>
<text xml:space="preserve" text-anchor="middle" x="161" y="-504.05" font-family="Times New Roman,serif" font-size="11.00">(PySceneDetect)</text>
</g>
<!-- Raw&#45;&gt;Scene -->
<g id="edge1" class="edge">
<title>Raw:e&#45;&gt;Scene:w</title>
<path fill="none" stroke="black" d="M86,-514.5C94.09,-514.5 98.39,-514.5 103.63,-514.5"/>
<polygon fill="black" stroke="black" points="103.61,-518 113.61,-514.5 103.61,-511 103.61,-518"/>
</g>
<!-- Filter -->
<g id="node3" class="node">
<title>Filter</title>
<path fill="none" stroke="black" d="M346.25,-532.5C346.25,-532.5 247.75,-532.5 247.75,-532.5 241.75,-532.5 235.75,-526.5 235.75,-520.5 235.75,-520.5 235.75,-508.5 235.75,-508.5 235.75,-502.5 241.75,-496.5 247.75,-496.5 247.75,-496.5 346.25,-496.5 346.25,-496.5 352.25,-496.5 358.25,-502.5 358.25,-508.5 358.25,-508.5 358.25,-520.5 358.25,-520.5 358.25,-526.5 352.25,-532.5 346.25,-532.5"/>
<text xml:space="preserve" text-anchor="middle" x="297" y="-517.55" font-family="Times New Roman,serif" font-size="11.00">Quality Filters</text>
<text xml:space="preserve" text-anchor="middle" x="297" y="-504.05" font-family="Times New Roman,serif" font-size="11.00">(aesthetic, optical flow)</text>
</g>
<!-- Scene&#45;&gt;Filter -->
<g id="edge2" class="edge">
<title>Scene:e&#45;&gt;Filter:w</title>
<path fill="none" stroke="black" d="M206.88,-514.5C214.9,-514.5 219.16,-514.5 224.36,-514.5"/>
<polygon fill="black" stroke="black" points="224.24,-518 234.24,-514.5 224.24,-511 224.24,-518"/>
</g>
<!-- CamFilt -->
<g id="node4" class="node">
<title>CamFilt</title>
<path fill="none" stroke="black" d="M540.25,-532.5C540.25,-532.5 399.75,-532.5 399.75,-532.5 393.75,-532.5 387.75,-526.5 387.75,-520.5 387.75,-520.5 387.75,-508.5 387.75,-508.5 387.75,-502.5 393.75,-496.5 399.75,-496.5 399.75,-496.5 540.25,-496.5 540.25,-496.5 546.25,-496.5 552.25,-502.5 552.25,-508.5 552.25,-508.5 552.25,-520.5 552.25,-520.5 552.25,-526.5 546.25,-532.5 540.25,-532.5"/>
<text xml:space="preserve" text-anchor="middle" x="470" y="-517.55" font-family="Times New Roman,serif" font-size="11.00">Camera&#45;motion Filtering</text>
<text xml:space="preserve" text-anchor="middle" x="470" y="-504.05" font-family="Times New Roman,serif" font-size="11.00">(Motion segmentation + detector)</text>
</g>
<!-- Filter&#45;&gt;CamFilt -->
<g id="edge3" class="edge">
<title>Filter:e&#45;&gt;CamFilt:w</title>
<path fill="none" stroke="black" d="M358.25,-514.5C366.65,-514.5 371.01,-514.5 376.51,-514.5"/>
<polygon fill="black" stroke="black" points="376.24,-518 386.24,-514.5 376.24,-511 376.24,-518"/>
</g>
<!-- Captions -->
<g id="node5" class="node">
<title>Captions</title>
<path fill="none" stroke="black" d="M674.62,-532.5C674.62,-532.5 593.38,-532.5 593.38,-532.5 587.38,-532.5 581.38,-526.5 581.38,-520.5 581.38,-520.5 581.38,-508.5 581.38,-508.5 581.38,-502.5 587.38,-496.5 593.38,-496.5 593.38,-496.5 674.62,-496.5 674.62,-496.5 680.62,-496.5 686.62,-502.5 686.62,-508.5 686.62,-508.5 686.62,-520.5 686.62,-520.5 686.62,-526.5 680.62,-532.5 674.62,-532.5"/>
<text xml:space="preserve" text-anchor="middle" x="634" y="-510.8" font-family="Times New Roman,serif" font-size="11.00">Captions (PLLaVA)</text>
</g>
<!-- CamFilt&#45;&gt;Captions -->
<g id="edge4" class="edge">
<title>CamFilt:e&#45;&gt;Captions:w</title>
<path fill="none" stroke="black" d="M552.25,-514.5C560.34,-514.5 564.64,-514.5 569.88,-514.5"/>
<polygon fill="black" stroke="black" points="569.86,-518 579.86,-514.5 569.86,-511 569.86,-518"/>
</g>
<!-- OF -->
<g id="node6" class="node">
<title>OF</title>
<path fill="none" stroke="black" d="M614.38,-450.25C614.38,-450.25 513.62,-450.25 513.62,-450.25 507.62,-450.25 501.62,-444.25 501.62,-438.25 501.62,-438.25 501.62,-426.25 501.62,-426.25 501.62,-420.25 507.62,-414.25 513.62,-414.25 513.62,-414.25 614.38,-414.25 614.38,-414.25 620.38,-414.25 626.38,-420.25 626.38,-426.25 626.38,-426.25 626.38,-438.25 626.38,-438.25 626.38,-444.25 620.38,-450.25 614.38,-450.25"/>
<text xml:space="preserve" text-anchor="middle" x="564" y="-435.3" font-family="Times New Roman,serif" font-size="11.00">Optical Flow Estimation</text>
<text xml:space="preserve" text-anchor="middle" x="564" y="-421.8" font-family="Times New Roman,serif" font-size="11.00">(GMA / RAFT&#45;like)</text>
</g>
<!-- Captions&#45;&gt;OF -->
<g id="edge5" class="edge">
<title>Captions&#45;&gt;OF</title>
<path fill="none" stroke="black" d="M612.2,-488.5C604.02,-479.13 594.71,-468.46 586.48,-459.02"/>
<polygon fill="black" stroke="black" points="589.37,-457 580.15,-451.77 584.09,-461.61 589.37,-457"/>
</g>
<!-- TrajSel -->
<g id="node11" class="node">
<title>TrajSel</title>
<path fill="none" stroke="black" d="M803.38,-450.25C803.38,-450.25 672.62,-450.25 672.62,-450.25 666.62,-450.25 660.62,-444.25 660.62,-438.25 660.62,-438.25 660.62,-426.25 660.62,-426.25 660.62,-420.25 666.62,-414.25 672.62,-414.25 672.62,-414.25 803.38,-414.25 803.38,-414.25 809.38,-414.25 815.38,-420.25 815.38,-426.25 815.38,-426.25 815.38,-438.25 815.38,-438.25 815.38,-444.25 809.38,-450.25 803.38,-450.25"/>
<text xml:space="preserve" text-anchor="middle" x="738" y="-435.3" font-family="Times New Roman,serif" font-size="11.00">Select 1..N Object Trajectories</text>
<text xml:space="preserve" text-anchor="middle" x="738" y="-421.8" font-family="Times New Roman,serif" font-size="11.00">(by motion seg. &amp; flow scores)</text>
</g>
<!-- Captions&#45;&gt;TrajSel -->
<g id="edge10" class="edge">
<title>Captions&#45;&gt;TrajSel</title>
<path fill="none" stroke="black" d="M666.4,-488.5C679.15,-478.66 693.75,-467.4 706.42,-457.62"/>
<polygon fill="black" stroke="black" points="708.5,-460.43 714.28,-451.55 704.22,-454.89 708.5,-460.43"/>
</g>
<!-- Flow2Map -->
<g id="node7" class="node">
<title>Flow2Map</title>
<path fill="none" stroke="black" d="M601.88,-371.25C601.88,-371.25 486.12,-371.25 486.12,-371.25 480.12,-371.25 474.12,-365.25 474.12,-359.25 474.12,-359.25 474.12,-347.25 474.12,-347.25 474.12,-341.25 480.12,-335.25 486.12,-335.25 486.12,-335.25 601.88,-335.25 601.88,-335.25 607.88,-335.25 613.88,-341.25 613.88,-347.25 613.88,-347.25 613.88,-359.25 613.88,-359.25 613.88,-365.25 607.88,-371.25 601.88,-371.25"/>
<text xml:space="preserve" text-anchor="middle" x="544" y="-356.3" font-family="Times New Roman,serif" font-size="11.00">Flow → RGB Visualization</text>
<text xml:space="preserve" text-anchor="middle" x="544" y="-342.8" font-family="Times New Roman,serif" font-size="11.00">+ Gaussian Smoothing</text>
</g>
<!-- OF&#45;&gt;Flow2Map -->
<g id="edge6" class="edge">
<title>OF&#45;&gt;Flow2Map</title>
<path fill="none" stroke="black" d="M559.46,-413.78C557.08,-404.62 554.11,-393.18 551.41,-382.78"/>
<polygon fill="black" stroke="black" points="554.8,-381.92 548.9,-373.12 548.03,-383.68 554.8,-381.92"/>
</g>
<!-- VAE3D_1 -->
<g id="node8" class="node">
<title>VAE3D_1</title>
<path fill="none" stroke="black" d="M599.12,-292.25C599.12,-292.25 478.88,-292.25 478.88,-292.25 472.88,-292.25 466.88,-286.25 466.88,-280.25 466.88,-280.25 466.88,-268.25 466.88,-268.25 466.88,-262.25 472.88,-256.25 478.88,-256.25 478.88,-256.25 599.12,-256.25 599.12,-256.25 605.12,-256.25 611.12,-262.25 611.12,-268.25 611.12,-268.25 611.12,-280.25 611.12,-280.25 611.12,-286.25 605.12,-292.25 599.12,-292.25"/>
<text xml:space="preserve" text-anchor="middle" x="539" y="-277.3" font-family="Times New Roman,serif" font-size="11.00">3D Motion VAE</text>
<text xml:space="preserve" text-anchor="middle" x="539" y="-263.8" font-family="Times New Roman,serif" font-size="11.00">(pretrained on flow datasets)</text>
</g>
<!-- Flow2Map&#45;&gt;VAE3D_1 -->
<g id="edge7" class="edge">
<title>Flow2Map&#45;&gt;VAE3D_1</title>
<path fill="none" stroke="black" d="M542.87,-334.78C542.28,-325.72 541.54,-314.42 540.87,-304.11"/>
<polygon fill="black" stroke="black" points="544.37,-303.92 540.23,-294.16 537.38,-304.37 544.37,-303.92"/>
</g>
<!-- MotionLatent1 -->
<g id="node9" class="node">
<title>MotionLatent1</title>
<path fill="none" stroke="black" d="M621,-213.25C621,-213.25 437,-213.25 437,-213.25 431,-213.25 425,-207.25 425,-201.25 425,-201.25 425,-189.25 425,-189.25 425,-183.25 431,-177.25 437,-177.25 437,-177.25 621,-177.25 621,-177.25 627,-177.25 633,-183.25 633,-189.25 633,-189.25 633,-201.25 633,-201.25 633,-207.25 627,-213.25 621,-213.25"/>
<text xml:space="preserve" text-anchor="middle" x="529" y="-191.55" font-family="Times New Roman,serif" font-size="11.00">Motion Latents (aligned with video latents)</text>
</g>
<!-- VAE3D_1&#45;&gt;MotionLatent1 -->
<g id="edge8" class="edge">
<title>VAE3D_1&#45;&gt;MotionLatent1</title>
<path fill="none" stroke="black" d="M536.73,-255.78C535.54,-246.62 534.06,-235.18 532.7,-224.78"/>
<polygon fill="black" stroke="black" points="536.21,-224.62 531.46,-215.15 529.27,-225.52 536.21,-224.62"/>
</g>
<!-- Train1 -->
<g id="node10" class="node">
<title>Train1</title>
<path fill="none" stroke="black" d="M617,-134.25C617,-134.25 439,-134.25 439,-134.25 433,-134.25 427,-128.25 427,-122.25 427,-122.25 427,-110.25 427,-110.25 427,-104.25 433,-98.25 439,-98.25 439,-98.25 617,-98.25 617,-98.25 623,-98.25 629,-104.25 629,-110.25 629,-110.25 629,-122.25 629,-122.25 629,-128.25 623,-134.25 617,-134.25"/>
<text xml:space="preserve" text-anchor="middle" x="528" y="-119.3" font-family="Times New Roman,serif" font-size="11.00">Train: Temporal DiT Blocks + TE + MGF</text>
<text xml:space="preserve" text-anchor="middle" x="528" y="-105.8" font-family="Times New Roman,serif" font-size="11.00">(loss on noise prediction)</text>
</g>
<!-- MotionLatent1&#45;&gt;Train1 -->
<g id="edge9" class="edge">
<title>MotionLatent1&#45;&gt;Train1</title>
<path fill="none" stroke="black" d="M528.77,-176.78C528.66,-167.72 528.51,-156.42 528.37,-146.11"/>
<polygon fill="black" stroke="black" points="531.88,-146.12 528.25,-136.17 524.88,-146.21 531.88,-146.12"/>
</g>
<!-- Inputs -->
<g id="node16" class="node">
<title>Inputs</title>
<path fill="none" stroke="black" d="M627,-52C627,-52 443,-52 443,-52 437,-52 431,-46 431,-40 431,-40 431,-28 431,-28 431,-22 437,-16 443,-16 443,-16 627,-16 627,-16 633,-16 639,-22 639,-28 639,-28 639,-40 639,-40 639,-46 633,-52 627,-52"/>
<text xml:space="preserve" text-anchor="middle" x="535" y="-30.3" font-family="Times New Roman,serif" font-size="11.00">Inputs: Text ± Image Frames ± Trajectories</text>
</g>
<!-- Train1&#45;&gt;Inputs -->
<!-- Sparse2Map -->
<g id="node12" class="node">
<title>Sparse2Map</title>
<path fill="none" stroke="black" d="M821.75,-371.25C821.75,-371.25 678.25,-371.25 678.25,-371.25 672.25,-371.25 666.25,-365.25 666.25,-359.25 666.25,-359.25 666.25,-347.25 666.25,-347.25 666.25,-341.25 672.25,-335.25 678.25,-335.25 678.25,-335.25 821.75,-335.25 821.75,-335.25 827.75,-335.25 833.75,-341.25 833.75,-347.25 833.75,-347.25 833.75,-359.25 833.75,-359.25 833.75,-365.25 827.75,-371.25 821.75,-371.25"/>
<text xml:space="preserve" text-anchor="middle" x="750" y="-356.3" font-family="Times New Roman,serif" font-size="11.00">Sparse Traj → RGB Visualization</text>
<text xml:space="preserve" text-anchor="middle" x="750" y="-342.8" font-family="Times New Roman,serif" font-size="11.00">+ Gaussian Smoothing</text>
</g>
<!-- TrajSel&#45;&gt;Sparse2Map -->
<g id="edge11" class="edge">
<title>TrajSel&#45;&gt;Sparse2Map</title>
<path fill="none" stroke="black" d="M740.72,-413.78C742.15,-404.62 743.93,-393.18 745.55,-382.78"/>
<polygon fill="black" stroke="black" points="748.97,-383.57 747.05,-373.15 742.06,-382.49 748.97,-383.57"/>
</g>
<!-- VAE3D_2 -->
<g id="node13" class="node">
<title>VAE3D_2</title>
<path fill="none" stroke="black" d="M805.5,-292.25C805.5,-292.25 702.5,-292.25 702.5,-292.25 696.5,-292.25 690.5,-286.25 690.5,-280.25 690.5,-280.25 690.5,-268.25 690.5,-268.25 690.5,-262.25 696.5,-256.25 702.5,-256.25 702.5,-256.25 805.5,-256.25 805.5,-256.25 811.5,-256.25 817.5,-262.25 817.5,-268.25 817.5,-268.25 817.5,-280.25 817.5,-280.25 817.5,-286.25 811.5,-292.25 805.5,-292.25"/>
<text xml:space="preserve" text-anchor="middle" x="754" y="-270.55" font-family="Times New Roman,serif" font-size="11.00">3D Motion VAE (frozen)</text>
</g>
<!-- Sparse2Map&#45;&gt;VAE3D_2 -->
<g id="edge12" class="edge">
<title>Sparse2Map&#45;&gt;VAE3D_2</title>
<path fill="none" stroke="black" d="M750.91,-334.78C751.38,-325.72 751.97,-314.42 752.5,-304.11"/>
<polygon fill="black" stroke="black" points="755.99,-304.33 753.02,-294.16 749,-303.97 755.99,-304.33"/>
</g>
<!-- MotionLatent2 -->
<g id="node14" class="node">
<title>MotionLatent2</title>
<path fill="none" stroke="black" d="M836.75,-213.25C836.75,-213.25 681.25,-213.25 681.25,-213.25 675.25,-213.25 669.25,-207.25 669.25,-201.25 669.25,-201.25 669.25,-189.25 669.25,-189.25 669.25,-183.25 675.25,-177.25 681.25,-177.25 681.25,-177.25 836.75,-177.25 836.75,-177.25 842.75,-177.25 848.75,-183.25 848.75,-189.25 848.75,-189.25 848.75,-201.25 848.75,-201.25 848.75,-207.25 842.75,-213.25 836.75,-213.25"/>
<text xml:space="preserve" text-anchor="middle" x="759" y="-191.55" font-family="Times New Roman,serif" font-size="11.00">Motion Latents (via frozen 3D VAE)</text>
</g>
<!-- VAE3D_2&#45;&gt;MotionLatent2 -->
<g id="edge13" class="edge">
<title>VAE3D_2&#45;&gt;MotionLatent2</title>
<path fill="none" stroke="black" d="M755.13,-255.78C755.72,-246.72 756.46,-235.42 757.13,-225.11"/>
<polygon fill="black" stroke="black" points="760.62,-225.37 757.77,-215.16 753.63,-224.92 760.62,-225.37"/>
</g>
<!-- Train2 -->
<g id="node15" class="node">
<title>Train2</title>
<path fill="none" stroke="black" d="M866.38,-134.25C866.38,-134.25 669.62,-134.25 669.62,-134.25 663.62,-134.25 657.62,-128.25 657.62,-122.25 657.62,-122.25 657.62,-110.25 657.62,-110.25 657.62,-104.25 663.62,-98.25 669.62,-98.25 669.62,-98.25 866.38,-98.25 866.38,-98.25 872.38,-98.25 878.38,-104.25 878.38,-110.25 878.38,-110.25 878.38,-122.25 878.38,-122.25 878.38,-128.25 872.38,-134.25 866.38,-134.25"/>
<text xml:space="preserve" text-anchor="middle" x="768" y="-119.3" font-family="Times New Roman,serif" font-size="11.00">Fine&#45;tune: Temporal DiT Blocks + TE + MGF</text>
<text xml:space="preserve" text-anchor="middle" x="768" y="-105.8" font-family="Times New Roman,serif" font-size="11.00">(adapter&#45;style)</text>
</g>
<!-- MotionLatent2&#45;&gt;Train2 -->
<g id="edge14" class="edge">
<title>MotionLatent2&#45;&gt;Train2</title>
<path fill="none" stroke="black" d="M761.04,-176.78C762.11,-167.62 763.45,-156.18 764.67,-145.78"/>
<polygon fill="black" stroke="black" points="768.11,-146.5 765.79,-136.16 761.15,-145.68 768.11,-146.5"/>
</g>
<!-- Train2&#45;&gt;Inputs -->
<!-- TE -->
<g id="node17" class="node">
<title>TE</title>
<path fill="none" stroke="black" d="M840.38,-52C840.38,-52 679.62,-52 679.62,-52 673.62,-52 667.62,-46 667.62,-40 667.62,-40 667.62,-28 667.62,-28 667.62,-22 673.62,-16 679.62,-16 679.62,-16 840.38,-16 840.38,-16 846.38,-16 852.38,-22 852.38,-28 852.38,-28 852.38,-40 852.38,-40 852.38,-46 846.38,-52 840.38,-52"/>
<text xml:space="preserve" text-anchor="middle" x="760" y="-37.05" font-family="Times New Roman,serif" font-size="11.00">Trajectory Extractor (TE)</text>
<text xml:space="preserve" text-anchor="middle" x="760" y="-23.55" font-family="Times New Roman,serif" font-size="11.00">(visualize + 3D VAE + conv pyramid)</text>
</g>
<!-- Train2&#45;&gt;TE -->
<g id="edge19" class="edge">
<title>Train2&#45;&gt;TE</title>
<path fill="none" stroke="black" stroke-dasharray="1,5" d="M766.26,-97.84C764.92,-84.38 763.07,-65.83 761.73,-52.38"/>
</g>
<!-- Inputs&#45;&gt;TE -->
<g id="edge15" class="edge">
<title>Inputs:e&#45;&gt;TE:w</title>
<path fill="none" stroke="black" d="M639,-34C646.95,-34 651.18,-34 656.33,-34"/>
<polygon fill="black" stroke="black" points="656.11,-37.5 666.11,-34 656.11,-30.5 656.11,-37.5"/>
</g>
<!-- MGF -->
<g id="node18" class="node">
<title>MGF</title>
<path fill="none" stroke="black" d="M1032.5,-52C1032.5,-52 893.5,-52 893.5,-52 887.5,-52 881.5,-46 881.5,-40 881.5,-40 881.5,-28 881.5,-28 881.5,-22 887.5,-16 893.5,-16 893.5,-16 1032.5,-16 1032.5,-16 1038.5,-16 1044.5,-22 1044.5,-28 1044.5,-28 1044.5,-40 1044.5,-40 1044.5,-46 1038.5,-52 1032.5,-52"/>
<text xml:space="preserve" text-anchor="middle" x="963" y="-37.05" font-family="Times New Roman,serif" font-size="11.00">Motion&#45;guidance Fuser (MGF)</text>
<text xml:space="preserve" text-anchor="middle" x="963" y="-23.55" font-family="Times New Roman,serif" font-size="11.00">(adaptive norm in Temporal DiT)</text>
</g>
<!-- TE&#45;&gt;MGF -->
<g id="edge16" class="edge">
<title>TE:e&#45;&gt;MGF:w</title>
<path fill="none" stroke="black" d="M852.38,-34C860.47,-34 864.76,-34 870.01,-34"/>
<polygon fill="black" stroke="black" points="869.99,-37.5 879.99,-34 869.99,-30.5 869.99,-37.5"/>
</g>
<!-- DiT -->
<g id="node19" class="node">
<title>DiT</title>
<path fill="none" stroke="black" d="M1206.88,-52C1206.88,-52 1085.12,-52 1085.12,-52 1079.12,-52 1073.12,-46 1073.12,-40 1073.12,-40 1073.12,-28 1073.12,-28 1073.12,-22 1079.12,-16 1085.12,-16 1085.12,-16 1206.88,-16 1206.88,-16 1212.88,-16 1218.88,-22 1218.88,-28 1218.88,-28 1218.88,-40 1218.88,-40 1218.88,-46 1212.88,-52 1206.88,-52"/>
<text xml:space="preserve" text-anchor="middle" x="1146" y="-37.05" font-family="Times New Roman,serif" font-size="11.00">ST&#45;DiT Denoising</text>
<text xml:space="preserve" text-anchor="middle" x="1146" y="-23.55" font-family="Times New Roman,serif" font-size="11.00">(30 steps, guidance scale ~7)</text>
</g>
<!-- MGF&#45;&gt;DiT -->
<g id="edge17" class="edge">
<title>MGF:e&#45;&gt;DiT:w</title>
<path fill="none" stroke="black" d="M1044.5,-34C1052.45,-34 1056.68,-34 1061.83,-34"/>
<polygon fill="black" stroke="black" points="1061.61,-37.5 1071.61,-34 1061.61,-30.5 1061.61,-37.5"/>
</g>
<!-- Output -->
<g id="node20" class="node">
<title>Output</title>
<path fill="none" stroke="black" d="M1390,-52C1390,-52 1260,-52 1260,-52 1254,-52 1248,-46 1248,-40 1248,-40 1248,-28 1248,-28 1248,-22 1254,-16 1260,-16 1260,-16 1390,-16 1390,-16 1396,-16 1402,-22 1402,-28 1402,-28 1402,-40 1402,-40 1402,-46 1396,-52 1390,-52"/>
<text xml:space="preserve" text-anchor="middle" x="1325" y="-30.3" font-family="Times New Roman,serif" font-size="11.00">Video (up to 204 frames, 720p)</text>
</g>
<!-- DiT&#45;&gt;Output -->
<g id="edge18" class="edge">
<title>DiT:e&#45;&gt;Output:w</title>
<path fill="none" stroke="black" d="M1218.88,-34C1226.97,-34 1231.26,-34 1236.51,-34"/>
<polygon fill="black" stroke="black" points="1236.49,-37.5 1246.49,-34 1236.49,-30.5 1236.49,-37.5"/>
</g>
</g>
</svg>
